<?xml version="1.0" encoding="UTF-8" standalone="no"?>
<!DOCTYPE svg PUBLIC "-//W3C//DTD SVG 1.1//EN" "http://www.w3.org/Graphics/SVG/1.1/DTD/svg11.dtd">
<svg xmlns="http://www.w3.org/2000/svg" version="1.1" viewBox="0 0 512 512">
<g stroke-width="2.0" fill="none" stroke-linecap="butt">
<path stroke="#e6d786" stroke-opacity="0.886" vector-effect="non-scaling-stroke" d="
  M 325.00 29.79
  Q 324.33 31.80 326.45 32.03
  Q 327.01 32.09 326.44 32.16
  Q 325.28 32.30 324.50 31.46
  Q 324.09 31.02 324.02 31.53
  Q 323.92 32.20 325.00 32.22
  Q 328.08 32.30 330.69 33.81
  Q 332.26 34.73 334.06 34.98
  Q 334.26 35.00 334.42 35.08
  Q 336.43 36.00 334.44 35.56
  Q 333.47 35.34 333.54 35.66
  A 0.68 0.41 -2.5 0 0 334.16 36.00
  Q 337.20 36.07 339.50 38.00
  Q 340.48 38.83 344.94 40.03
  Q 347.81 40.81 350.37 42.00
  Q 352.81 43.14 356.06 44.56
  Q 357.17 45.04 358.38 45.07
  Q 359.61 45.10 359.29 45.98
  A 0.39 0.37 -75.7 0 0 359.57 46.49
  Q 360.82 46.71 361.56 47.77
  A 1.41 1.22 77.1 0 0 362.30 48.31
  Q 365.03 49.05 367.47 50.51
  Q 377.15 56.33 387.06 61.73
  Q 387.38 61.90 387.05 62.08
  Q 386.56 62.35 387.25 62.75
  Q 391.32 65.09 394.33 67.69
  Q 396.24 69.35 398.63 70.66
  Q 401.92 72.45 404.65 75.10
  Q 405.92 76.33 407.21 77.54
  Q 408.11 78.39 409.94 79.78
  Q 413.44 82.45 418.56 87.69
  Q 425.94 95.22 433.28 102.78
  Q 433.49 102.99 433.77 103.17
  Q 435.21 104.09 433.87 103.83
  Q 433.52 103.76 433.78 103.99
  Q 439.06 108.59 442.10 114.86
  Q 442.47 115.61 442.99 116.12
  Q 443.54 116.66 444.11 117.17
  A 1.06 0.88 -70.5 0 1 444.42 118.00
  Q 444.35 119.07 445.21 119.43
  Q 445.80 119.68 446.04 119.92
  Q 448.93 122.95 450.96 126.64
  Q 452.58 129.57 454.80 133.46
  Q 455.75 135.13 454.02 135.98
  Q 445.28 140.21 436.15 145.57
  Q 434.28 146.68 432.17 148.33
  Q 430.26 149.83 428.29 151.25"
/>
<path stroke="#857b4c" stroke-opacity="0.992" vector-effect="non-scaling-stroke" d="
  M 428.29 151.25
  Q 420.62 137.04 414.44 129.06
  Q 366.55 67.30 289.00 54.24
  Q 268.89 50.85 253.00 51.00
  Q 216.69 51.35 180.87 65.25
  Q 166.36 70.88 150.44 80.69
  Q 107.09 107.39 82.75 150.75
  Q 80.61 154.57 79.88 157.01
  A 0.93 0.90 -59.1 0 0 80.08 157.88
  Q 81.66 159.56 83.93 159.88
  A 0.72 0.70 -72.6 0 0 84.66 159.49
  Q 93.13 141.99 106.81 125.81
  Q 121.34 108.63 137.63 96.42
  Q 168.87 72.99 206.29 62.88
  Q 216.00 60.25 225.85 58.76
  Q 264.64 52.89 303.06 62.46
  Q 372.08 79.66 413.11 137.40
  Q 420.41 147.67 425.31 159.62
  A 0.73 0.73 -14.5 0 0 426.06 160.06
  Q 427.34 159.89 427.80 159.21
  A 1.11 0.80 55.4 0 0 427.82 158.28
  L 426.21 154.50"
/>
<path stroke="#efdb77" stroke-opacity="0.980" vector-effect="non-scaling-stroke" d="
  M 426.21 154.50
  Q 427.64 154.55 428.29 153.50"
/>
<path stroke="#857b4c" stroke-opacity="0.992" vector-effect="non-scaling-stroke" d="
  M 428.29 153.50
  L 430.05 157.52
  A 0.58 0.52 -22.3 0 0 430.78 157.78
  L 433.25 156.79"
/>
<path stroke="#a5995d" stroke-opacity="0.804" vector-effect="non-scaling-stroke" d="
  M 304.00 300.71
  Q 298.92 299.18 293.86 297.57
  Q 288.78 295.95 284.12 293.46
  Q 278.27 290.33 272.49 287.06
  Q 272.00 286.78 272.09 287.31
  L 273.54 296.00"
/>
<path stroke="#dcce7d" stroke-opacity="0.835" vector-effect="non-scaling-stroke" d="
  M 263.71 416.25
  Q 263.14 416.66 262.54 416.58
  A 0.70 0.58 -88.3 0 1 262.04 415.94
  Q 261.95 413.97 261.97 412.00
  Q 261.98 411.35 261.70 411.63
  A 0.68 0.50 74.1 0 0 261.55 412.03
  L 261.46 415.75"
/>
<path stroke="#8e8554" stroke-opacity="0.925" vector-effect="non-scaling-stroke" d="
  M 248.96 280.50
  L 245.25 282.71"
/>
<path stroke="#8e8554" stroke-opacity="0.925" vector-effect="non-scaling-stroke" d="
  M 234.96 288.50
  L 231.00 290.96"
/>
<path stroke="#8e8554" stroke-opacity="0.925" vector-effect="non-scaling-stroke" d="
  M 218.71 297.50
  L 188.25 307.21"
/>
<path stroke="#a5995d" stroke-opacity="0.804" vector-effect="non-scaling-stroke" d="
  M 176.75 311.71
  L 172.75 313.21"
/>
<path stroke="#8e8554" stroke-opacity="0.925" vector-effect="non-scaling-stroke" d="
  M 131.00 333.04
  Q 124.46 336.12 118.50 340.21"
/>
<path stroke="#d7c779" stroke-opacity="0.800" vector-effect="non-scaling-stroke" d="
  M 118.25 340.29
  Q 117.32 340.34 117.04 339.54
  A 0.95 0.75 2.8 0 0 116.44 339.02
  L 113.96 338.25"
/>
<path stroke="#c4b86d" stroke-opacity="0.914" vector-effect="non-scaling-stroke" d="
  M 121.04 317.00
  Q 122.48 315.61 122.50 313.54"
/>
<path stroke="#857b4c" stroke-opacity="0.992" vector-effect="non-scaling-stroke" d="
  M 145.29 266.25
  Q 146.78 265.20 145.65 264.10
  Q 144.36 262.84 142.79 262.00"
/>
<path stroke="#857b4c" stroke-opacity="0.992" vector-effect="non-scaling-stroke" d="
  M 138.25 258.46
  L 120.54 244.25"
/>
<path stroke="#857b4c" stroke-opacity="0.992" vector-effect="non-scaling-stroke" d="
  M 120.25 243.96
  L 114.75 239.25"
/>
<path stroke="#857b4c" stroke-opacity="0.992" vector-effect="non-scaling-stroke" d="
  M 114.75 239.25
  L 106.79 232.25"
/>
<path stroke="#eadf89" stroke-opacity="0.996" vector-effect="non-scaling-stroke" d="
  M 103.46 228.75
  Q 103.84 226.81 102.73 225.28
  Q 99.34 220.57 95.17 216.53
  Q 95.09 216.45 94.09 215.77
  Q 93.32 215.24 93.53 214.28
  A 0.87 0.77 -63.8 0 0 93.31 213.47
  Q 85.93 206.76 83.75 203.00
  Q 80.49 197.40 77.25 193.50
  Q 76.09 192.10 75.39 190.75
  Q 74.23 188.52 73.80 187.91
  Q 71.90 185.26 69.93 182.66
  Q 68.06 180.18 66.43 177.17
  Q 64.43 173.47 62.15 169.92
  Q 59.60 165.96 57.76 162.77
  Q 55.55 158.93 52.68 154.39
  A 2.96 2.96 -5.8 0 0 51.22 153.20
  Q 49.71 152.61 49.96 153.75"
/>
<path stroke="#e6d786" stroke-opacity="0.886" vector-effect="non-scaling-stroke" d="
  M 47.46 148.00
  Q 48.11 145.40 51.00 145.46"
/>
<path stroke="#e2d187" stroke-opacity="0.871" vector-effect="non-scaling-stroke" d="
  M 153.21 42.75
  Q 155.22 43.34 158.00 42.50
  Q 163.75 40.76 169.50 39.03
  Q 172.51 38.12 177.74 35.83
  Q 182.64 33.68 186.25 33.25
  Q 189.39 32.87 192.21 31.48
  Q 193.11 31.04 192.36 30.96
  Q 192.10 30.93 192.34 30.88
  L 209.53 27.29
  A 0.30 0.16 -14.2 0 0 209.80 27.04
  Q 209.75 26.93 209.45 26.92
  Q 209.19 26.91 209.43 26.86
  Q 212.84 26.19 214.00 26.50
  Q 215.82 26.99 216.36 25.73
  A 0.78 0.70 -78.7 0 1 217.00 25.25
  Q 219.83 25.16 220.25 22.29"
/>
<path stroke="#a59551" vector-effect="non-scaling-stroke" d="
  M 225.50 21.46
  Q 231.67 21.80 237.75 20.71"
/>
<path stroke="#b3a354" stroke-opacity="0.992" vector-effect="non-scaling-stroke" d="
  M 67.00 198.54
  Q 66.11 200.24 65.62 202.08
  Q 64.75 205.28 64.72 205.38
  Q 55.84 233.03 55.50 259.25
  Q 54.80 313.01 82.44 360.81
  Q 87.88 370.23 93.79 378.20
  Q 99.51 385.92 104.66 391.87
  Q 109.66 397.65 116.69 404.56
  Q 128.36 416.04 135.32 421.50
  Q 135.60 421.72 135.87 421.75
  Q 136.18 421.79 136.50 421.71"
/>
<path stroke="#cec270" stroke-opacity="0.992" vector-effect="non-scaling-stroke" d="
  M 136.50 421.71
  Q 136.73 421.77 136.79 422.00"
/>
<path stroke="#a5995d" stroke-opacity="0.804" vector-effect="non-scaling-stroke" d="
  M 136.79 422.00
  L 127.67 446.03
  Q 127.45 446.59 127.77 446.08
  L 131.04 440.75"
/>
<path stroke="#857b4c" stroke-opacity="0.992" vector-effect="non-scaling-stroke" d="
  M 131.04 440.75
  Q 136.93 434.39 141.04 427.90
  A 1.68 1.68 32.4 0 1 143.37 427.38
  Q 172.82 446.21 205.50 454.50
  Q 213.98 456.65 219.46 457.25"
/>
<path stroke="#857b4c" stroke-opacity="0.992" vector-effect="non-scaling-stroke" d="
  M 220.75 457.54
  Q 224.20 458.52 232.00 459.50
  Q 281.63 465.72 327.15 449.08
  Q 355.89 438.58 378.94 420.19
  Q 417.35 389.54 438.56 344.31
  Q 446.72 326.92 450.21 310.75"
/>
<path stroke="#c7ba67" stroke-opacity="0.820" vector-effect="non-scaling-stroke" d="
  M 467.79 161.00
  L 471.96 160.75"
/>
<path stroke="#8e8554" stroke-opacity="0.925" vector-effect="non-scaling-stroke" d="
  M 295.25 492.54
  L 291.25 493.46"
/>
<path stroke="#a5995d" stroke-opacity="0.804" vector-effect="non-scaling-stroke" d="
  M 279.25 494.29
  L 272.75 495.29"
/>
<path stroke="#857b4c" stroke-opacity="0.992" vector-effect="non-scaling-stroke" d="
  M 211.50 491.71
  L 190.54 486.25"
/>
<path stroke="#a5995d" stroke-opacity="0.804" vector-effect="non-scaling-stroke" d="
  M 114.50 447.21
  L 110.29 444.25"
/>
<path stroke="#dcce7d" stroke-opacity="0.835" vector-effect="non-scaling-stroke" d="
  M 27.46 319.25
  Q 27.81 317.18 27.06 315.26
  Q 26.45 313.71 26.46 315.50"
/>
<path stroke="#dcce7d" stroke-opacity="0.835" vector-effect="non-scaling-stroke" d="
  M 23.46 298.50
  L 23.46 294.90
  A 0.47 0.34 -89.4 0 0 23.13 294.43
  Q 22.86 294.42 22.92 295.01
  Q 22.98 295.65 22.79 295.04
  L 22.54 294.25"
/>
<path stroke="#5a4b12" stroke-opacity="0.992" vector-effect="non-scaling-stroke" d="
  M 68.71 202.00
  L 68.54 202.00"
/>
<path stroke="#2d240a" stroke-opacity="0.992" vector-effect="non-scaling-stroke" d="
  M 182.75 446.21
  L 188.20 448.11
  Q 188.83 448.33 188.69 447.69
  Q 188.63 447.41 188.40 447.22
  Q 188.17 447.03 187.55 447.04
  Q 186.48 447.04 185.71 446.25"
/>
<path stroke="#6f663c" stroke-opacity="0.988" vector-effect="non-scaling-stroke" d="
  M 273.29 459.25
  Q 276.01 458.75 278.76 458.69
  Q 282.30 458.62 284.21 458.32
  Q 289.64 457.46 295.07 456.60
  Q 301.78 455.55 305.88 454.60
  Q 323.34 450.57 340.25 442.75
  Q 368.18 429.83 390.09 409.22
  Q 397.16 402.58 404.08 394.93
  Q 425.81 370.88 439.04 341.00"
/>
<path stroke="#857433" stroke-opacity="0.902" vector-effect="non-scaling-stroke" d="
  M 69.25 205.54
  Q 50.47 266.49 71.79 326.50"
/>
<path stroke="#372d0c" stroke-opacity="0.804" vector-effect="non-scaling-stroke" d="
  M 71.79 326.50
  L 73.71 336.25"
/>
<path stroke="#958335" stroke-opacity="0.980" vector-effect="non-scaling-stroke" d="
  M 68.54 202.00
  Q 67.23 208.18 66.25 211.50
  Q 55.35 248.61 60.71 286.97
  Q 63.67 308.21 68.25 320.75
  Q 71.07 328.47 73.71 336.25"
/>
<path stroke="#3d320d" stroke-opacity="0.639" vector-effect="non-scaling-stroke" d="
  M 185.71 446.25
  Q 184.57 445.62 183.25 445.54"
/>
<path stroke="#766b2e" stroke-opacity="0.992" vector-effect="non-scaling-stroke" d="
  M 183.25 445.54
  L 182.75 446.21"
/>
<path stroke="#897f4a" stroke-opacity="0.800" vector-effect="non-scaling-stroke" d="
  M 273.29 459.25
  Q 273.60 457.71 275.50 458.04"
/>
<path stroke="#b8ae61" stroke-opacity="0.988" vector-effect="non-scaling-stroke" d="
  M 439.04 341.00
  Q 438.87 340.66 438.50 340.71"
/>
<path stroke="#c4a93c" stroke-opacity="0.820" vector-effect="non-scaling-stroke" d="
  M 201.54 337.50
  L 201.67 336.81
  A 0.56 0.43 9.5 0 0 201.18 336.29
  L 199.25 335.96"
/>
<path stroke="#a28831" stroke-opacity="0.800" vector-effect="non-scaling-stroke" d="
  M 199.46 341.00
  Q 197.52 342.47 199.46 343.75"
/>
<path stroke="#8c762d" stroke-opacity="0.922" vector-effect="non-scaling-stroke" d="
  M 193.25 351.71
  Q 192.15 350.84 190.75 350.79"
/>
<path stroke="#d2ad3c" stroke-opacity="0.992" vector-effect="non-scaling-stroke" d="
  M 181.00 331.21
  L 180.29 331.54
  A 0.93 0.71 47.7 0 1 179.42 331.38
  Q 177.30 329.73 175.20 328.08
  Q 172.97 326.33 171.50 325.97
  Q 169.29 325.44 167.05 326.27
  Q 166.41 326.51 165.92 326.45
  Q 165.33 326.38 164.75 326.21"
/>
<path stroke="#8e8554" stroke-opacity="0.925" vector-effect="non-scaling-stroke" d="
  M 248.75 63.79
  Q 241.93 63.71 235.21 64.75"
/>
<path stroke="#8e8554" stroke-opacity="0.925" vector-effect="non-scaling-stroke" d="
  M 235.00 64.79
  Q 233.29 64.52 231.75 65.21"
/>
<path stroke="#dcce7d" stroke-opacity="0.835" vector-effect="non-scaling-stroke" d="
  M 178.04 80.00
  Q 175.66 80.36 173.74 81.81
  Q 173.52 81.97 173.78 82.01
  L 174.00 82.04"
/>
<path stroke="#d7c779" stroke-opacity="0.800" vector-effect="non-scaling-stroke" d="
  M 161.50 88.79
  Q 158.91 89.37 157.00 91.21"
/>
<path stroke="#dcce7d" stroke-opacity="0.835" vector-effect="non-scaling-stroke" d="
  M 151.71 94.75
  Q 148.62 94.56 145.00 97.00
  Q 141.44 99.39 138.16 102.15
  Q 137.81 102.45 135.23 104.13
  Q 133.72 105.11 132.69 106.69
  Q 131.42 108.62 130.00 109.50
  Q 125.93 112.02 124.29 116.50"
/>
<path stroke="#a5995d" stroke-opacity="0.804" vector-effect="non-scaling-stroke" d="
  M 90.96 160.75
  Q 89.63 162.27 91.25 163.25
  Q 93.91 164.87 95.00 165.21"
/>
<path stroke="#a5995d" stroke-opacity="0.804" vector-effect="non-scaling-stroke" d="
  M 99.21 167.25
  Q 99.92 168.05 101.00 168.04"
/>
<path stroke="#e2d187" stroke-opacity="0.871" vector-effect="non-scaling-stroke" d="
  M 161.50 205.04
  Q 162.11 206.15 161.25 206.26
  A 0.27 0.26 -19.1 0 0 161.04 206.66
  Q 162.84 209.32 159.50 209.04"
/>
<path stroke="#d5bb5f" stroke-opacity="0.992" vector-effect="non-scaling-stroke" d="
  M 243.25 266.04
  L 255.50 272.94
  Q 255.94 273.19 255.93 272.68
  Q 255.45 249.22 254.36 225.79
  Q 254.35 225.72 254.28 221.21
  Q 254.22 217.46 253.50 212.00
  Q 253.18 209.57 252.76 201.83
  Q 252.54 197.74 252.86 191.66
  Q 253.20 185.09 252.96 178.50"
/>
<path stroke="#d7c779" stroke-opacity="0.800" vector-effect="non-scaling-stroke" d="
  M 252.79 96.00
  Q 253.46 96.11 253.75 95.46"
/>
<path stroke="#857b4c" stroke-opacity="0.992" vector-effect="non-scaling-stroke" d="
  M 259.29 121.00
  Q 259.37 123.75 260.46 126.25"
/>
<path stroke="#c7ba67" stroke-opacity="0.820" vector-effect="non-scaling-stroke" d="
  M 281.25 228.04
  Q 284.36 229.14 287.25 227.54"
/>
<path stroke="#c7ba67" stroke-opacity="0.820" vector-effect="non-scaling-stroke" d="
  M 287.96 227.50
  Q 291.57 227.84 294.75 226.04"
/>
<path stroke="#a5995d" stroke-opacity="0.804" vector-effect="non-scaling-stroke" d="
  M 403.00 172.21
  Q 404.23 172.23 405.00 171.29"
/>
<path stroke="#a5995d" stroke-opacity="0.804" vector-effect="non-scaling-stroke" d="
  M 408.50 169.46
  Q 410.01 169.19 411.25 168.29"
/>
<path stroke="#857b4c" stroke-opacity="0.992" vector-effect="non-scaling-stroke" d="
  M 418.04 164.50
  Q 421.73 163.82 419.54 161.25"
/>
<path stroke="#dcce7d" stroke-opacity="0.835" vector-effect="non-scaling-stroke" d="
  M 416.50 153.96
  Q 417.00 152.05 415.25 152.00"
/>
<path stroke="#d7c779" stroke-opacity="0.800" vector-effect="non-scaling-stroke" d="
  M 415.25 152.00
  Q 415.23 148.49 412.25 146.79"
/>
<path stroke="#dcce7d" stroke-opacity="0.835" vector-effect="non-scaling-stroke" d="
  M 396.50 125.79
  Q 397.06 125.51 397.69 125.51
  Q 398.12 125.52 397.80 125.25
  Q 395.69 123.51 394.30 121.19
  Q 393.63 120.06 392.72 119.21
  Q 391.78 118.33 390.96 117.33
  Q 390.93 117.29 390.22 116.06
  Q 389.82 115.36 389.04 115.07
  Q 388.48 114.86 388.20 114.60
  Q 378.13 105.22 367.09 97.03
  Q 366.58 96.65 363.66 94.81
  Q 361.91 93.71 360.42 92.28
  Q 360.07 91.95 359.57 91.81
  Q 356.77 91.00 354.82 88.87
  A 1.81 1.73 -12.0 0 0 354.01 88.37
  Q 352.19 87.84 350.66 86.78
  Q 347.89 84.85 347.20 84.51
  Q 337.94 79.90 328.44 75.81
  Q 326.78 75.09 324.94 75.17
  Q 324.70 75.17 324.85 74.95
  Q 325.01 74.72 324.74 74.45
  Q 324.57 74.27 324.19 74.17
  Q 321.10 73.39 318.35 71.93
  Q 316.91 71.16 314.92 70.77
  Q 313.08 70.42 311.39 69.55
  A 1.80 1.71 54.9 0 0 310.45 69.36
  L 305.25 69.79"
/>
<path stroke="#d7c779" stroke-opacity="0.800" vector-effect="non-scaling-stroke" d="
  M 261.96 63.50
  Q 255.48 63.02 249.00 63.71"
/>
<path stroke="#f2e18c" stroke-opacity="0.525" vector-effect="non-scaling-stroke" d="
  M 403.00 181.21
  Q 372.00 199.29 353.44 209.19
  Q 347.61 212.30 335.83 217.42
  Q 335.14 217.72 333.07 218.27
  Q 331.62 218.65 330.41 219.46
  A 0.57 0.52 51.3 0 1 329.71 219.35
  Q 329.07 218.67 328.43 219.62
  A 0.21 0.19 30.6 0 0 328.52 219.90
  Q 328.81 220.07 328.25 220.25
  Q 301.10 228.93 278.56 232.69
  Q 277.18 232.92 273.71 233.25"
/>
<path stroke="#8e8554" stroke-opacity="0.925" vector-effect="non-scaling-stroke" d="
  M 273.71 233.25
  L 272.51 233.25
  A 0.63 0.62 5.5 0 0 271.89 233.75
  Q 271.15 237.58 272.46 241.25"
/>
<path stroke="#f2e18c" stroke-opacity="0.525" vector-effect="non-scaling-stroke" d="
  M 272.46 241.25
  Q 272.77 251.32 274.25 261.29"
/>
<path stroke="#a5995d" stroke-opacity="0.804" vector-effect="non-scaling-stroke" d="
  M 274.25 261.29
  Q 273.79 264.83 276.50 262.71"
/>
<path stroke="#f2e18c" stroke-opacity="0.525" vector-effect="non-scaling-stroke" d="
  M 276.50 262.71
  Q 294.88 255.67 313.01 248.02
  Q 348.93 232.87 380.44 209.94
  Q 393.34 200.54 406.04 184.50"
/>
<path stroke="#8e8554" stroke-opacity="0.925" vector-effect="non-scaling-stroke" d="
  M 406.04 184.50
  Q 409.39 181.41 404.75 180.75
  Q 404.11 180.66 403.00 181.21"
/>
<path stroke="#857b4c" stroke-opacity="0.992" vector-effect="non-scaling-stroke" d="
  M 345.75 147.04
  Q 347.84 150.45 352.00 149.21"
/>
<path stroke="#e7d783" stroke-opacity="0.996" vector-effect="non-scaling-stroke" d="
  M 352.00 149.21
  Q 356.33 148.93 360.50 150.04"
/>
<path stroke="#857b4c" stroke-opacity="0.992" vector-effect="non-scaling-stroke" d="
  M 352.71 158.25
  Q 351.91 160.99 353.46 163.50"
/>
<path stroke="#857b4c" stroke-opacity="0.992" vector-effect="non-scaling-stroke" d="
  M 346.75 165.96
  L 344.43 164.26
  A 0.81 0.80 -42.2 0 0 343.56 164.22
  L 336.75 168.21"
/>
<path stroke="#857b4c" stroke-opacity="0.992" vector-effect="non-scaling-stroke" d="
  M 334.71 159.00
  Q 334.66 156.96 332.79 156.00"
/>
<path stroke="#6f663c" stroke-opacity="0.988" vector-effect="non-scaling-stroke" d="
  M 352.46 148.75
  Q 352.29 149.02 352.00 149.21"
/>
<path stroke="#857b4c" stroke-opacity="0.992" vector-effect="non-scaling-stroke" d="
  M 172.21 146.50
  Q 174.05 150.58 178.50 148.54"
/>
<path stroke="#857b4c" stroke-opacity="0.992" vector-effect="non-scaling-stroke" d="
  M 171.75 164.96
  Q 170.92 163.63 169.43 164.18
  Q 166.22 165.37 163.50 167.46"
/>
<path stroke="#8e8554" stroke-opacity="0.925" vector-effect="non-scaling-stroke" d="
  M 160.54 160.25
  Q 161.52 158.91 160.81 157.69
  Q 159.62 155.64 157.04 154.00"
/>
<path stroke="#8e8554" stroke-opacity="0.925" vector-effect="non-scaling-stroke" d="
  M 157.75 147.79
  L 164.00 148.71"
/>
</g>
<path fill="#d8c369" fill-opacity="0.914" d="
  M 293.50 17.21
  L 284.75 16.04
  L 279.50 15.54
  Q 275.90 14.68 272.19 14.51
  Q 255.96 13.76 239.75 14.71
  Q 219.56 15.89 199.87 20.48
  Q 197.98 20.92 195.97 21.18
  Q 194.64 21.35 193.32 21.55
  Q 192.07 21.73 190.76 22.24
  Q 183.62 24.98 176.11 26.43
  Q 175.44 26.56 175.79 26.83
  L 175.97 26.97
  Q 176.12 27.08 175.98 27.13
  L 171.75 28.54
  Q 169.56 28.46 168.00 29.96
  L 163.25 32.04
  Q 158.74 32.31 154.93 34.78
  Q 154.71 34.92 154.39 34.98
  Q 153.31 35.20 154.25 35.71
  L 152.75 36.54
  Q 150.51 36.59 148.76 37.91
  A 0.24 0.18 -44.8 0 0 148.71 38.26
  Q 148.82 38.33 149.00 38.29
  L 143.75 41.04
  Q 141.63 41.68 140.00 43.21
  Q 138.76 43.28 137.87 43.98
  Q 136.42 45.13 136.33 45.19
  Q 82.73 76.51 49.69 129.94
  Q 47.54 133.41 46.65 135.23
  A 0.77 0.73 13.6 0 1 45.94 135.64
  L 39.38 135.43
  Q 38.10 135.39 39.12 134.66
  Q 40.84 133.44 41.71 131.95
  Q 56.11 107.25 75.31 86.06
  Q 102.58 55.97 141.21 36.50
  Q 143.85 36.58 145.21 34.50
  Q 145.63 34.05 146.25 33.96
  Q 151.04 32.55 155.33 30.00
  Q 155.75 29.76 156.26 29.75
  Q 158.86 29.71 156.50 29.04
  L 159.04 28.25
  Q 160.26 28.05 161.44 27.69
  Q 161.91 27.55 163.51 26.61
  Q 164.55 25.99 165.82 25.89
  Q 167.08 25.79 167.46 24.75
  L 172.29 23.00
  Q 181.45 21.01 190.27 17.83
  Q 190.49 17.75 190.75 17.73
  Q 192.39 17.62 191.00 17.21
  Q 192.94 15.96 195.25 15.96
  Q 198.10 16.71 200.21 15.00
  Q 200.96 14.39 201.31 14.31
  Q 230.51 7.89 259.25 8.50
  Q 327.09 9.94 384.81 44.19
  Q 407.71 57.77 427.48 77.02
  Q 452.41 101.30 471.56 134.47
  A 1.15 1.15 -21.3 0 1 470.81 136.18
  Q 469.31 136.51 467.02 135.63
  A 1.52 1.39 83.6 0 1 466.31 135.01
  Q 432.80 78.23 375.56 45.44
  Q 372.06 43.43 364.76 39.56
  Q 358.76 36.38 353.68 34.24
  Q 324.68 22.06 293.50 17.21
  Z"
/>
<path fill="#0c0904" fill-opacity="0.984" d="
  M 279.50 15.54
  Q 276.48 15.86 270.00 15.00
  Q 263.25 14.10 239.75 14.71
  Q 255.96 13.76 272.19 14.51
  Q 275.90 14.68 279.50 15.54
  Z"
/>
<path fill="#aca35e" fill-opacity="0.671" d="
  M 200.21 15.00
  Q 198.10 16.71 195.25 15.96
  L 200.21 15.00
  Z"
/>
<path fill="#0c0904" fill-opacity="0.984" d="
  M 284.75 16.04
  L 293.50 17.21
  Q 289.02 17.37 284.75 16.04
  Z"
/>
<path fill="#978c4e" fill-opacity="0.600" d="
  M 191.00 17.21
  Q 192.39 17.62 190.75 17.73
  Q 190.49 17.75 190.27 17.83
  Q 181.45 21.01 172.29 23.00
  Q 181.45 19.49 191.00 17.21
  Z"
/>
<path fill="#fdeb92" d="
  M 325.00 29.79
  Q 324.33 31.80 326.45 32.03
  Q 327.01 32.09 326.44 32.16
  Q 325.28 32.30 324.50 31.46
  Q 324.09 31.02 324.02 31.53
  Q 323.92 32.20 325.00 32.22
  Q 328.08 32.30 330.69 33.81
  Q 332.26 34.73 334.06 34.98
  Q 334.26 35.00 334.42 35.08
  Q 336.43 36.00 334.44 35.56
  Q 333.47 35.34 333.54 35.66
  A 0.68 0.41 -2.5 0 0 334.16 36.00
  Q 337.20 36.07 339.50 38.00
  Q 340.48 38.83 344.94 40.03
  Q 347.81 40.81 350.37 42.00
  Q 352.81 43.14 356.06 44.56
  Q 357.17 45.04 358.38 45.07
  Q 359.61 45.10 359.29 45.98
  A 0.39 0.37 -75.7 0 0 359.57 46.49
  Q 360.82 46.71 361.56 47.77
  A 1.41 1.22 77.1 0 0 362.30 48.31
  Q 365.03 49.05 367.47 50.51
  Q 377.15 56.33 387.06 61.73
  Q 387.38 61.90 387.05 62.08
  Q 386.56 62.35 387.25 62.75
  Q 391.32 65.09 394.33 67.69
  Q 396.24 69.35 398.63 70.66
  Q 401.92 72.45 404.65 75.10
  Q 405.92 76.33 407.21 77.54
  Q 408.11 78.39 409.94 79.78
  Q 413.44 82.45 418.56 87.69
  Q 425.94 95.22 433.28 102.78
  Q 433.49 102.99 433.77 103.17
  Q 435.21 104.09 433.87 103.83
  Q 433.52 103.76 433.78 103.99
  Q 439.06 108.59 442.10 114.86
  Q 442.47 115.61 442.99 116.12
  Q 443.54 116.66 444.11 117.17
  A 1.06 0.88 -70.5 0 1 444.42 118.00
  Q 444.35 119.07 445.21 119.43
  Q 445.80 119.68 446.04 119.92
  Q 448.93 122.95 450.96 126.64
  Q 452.58 129.57 454.80 133.46
  Q 455.75 135.13 454.02 135.98
  Q 445.28 140.21 436.15 145.57
  Q 434.28 146.68 432.17 148.33
  Q 430.26 149.83 428.29 151.25
  Q 420.62 137.04 414.44 129.06
  Q 366.55 67.30 289.00 54.24
  Q 268.89 50.85 253.00 51.00
  Q 216.69 51.35 180.87 65.25
  Q 166.36 70.88 150.44 80.69
  Q 107.09 107.39 82.75 150.75
  Q 80.61 154.57 79.88 157.01
  A 0.93 0.90 -59.1 0 0 80.08 157.88
  Q 81.66 159.56 83.93 159.88
  A 0.72 0.70 -72.6 0 0 84.66 159.49
  Q 93.13 141.99 106.81 125.81
  Q 121.34 108.63 137.63 96.42
  Q 168.87 72.99 206.29 62.88
  Q 216.00 60.25 225.85 58.76
  Q 264.64 52.89 303.06 62.46
  Q 372.08 79.66 413.11 137.40
  Q 420.41 147.67 425.31 159.62
  A 0.73 0.73 -14.5 0 0 426.06 160.06
  Q 427.34 159.89 427.80 159.21
  A 1.11 0.80 55.4 0 0 427.82 158.28
  L 426.21 154.50
  Q 427.64 154.55 428.29 153.50
  L 430.05 157.52
  A 0.58 0.52 -22.3 0 0 430.78 157.78
  L 433.25 156.79
  L 462.74 143.17
  A 1.70 1.63 -38.2 0 1 464.44 143.34
  Q 467.52 145.71 466.11 149.29
  Q 462.81 157.65 458.50 165.53
  Q 441.31 196.99 416.38 222.48
  Q 409.83 229.18 402.03 236.41
  Q 385.83 251.42 367.76 263.93
  Q 366.09 265.08 367.11 266.83
  Q 368.44 269.14 369.48 271.39
  Q 371.03 274.74 371.71 276.02
  Q 387.89 306.55 399.23 339.22
  Q 400.45 342.73 401.87 345.31
  Q 402.45 346.36 401.47 345.68
  Q 375.00 327.34 345.94 315.06
  Q 327.23 307.15 304.00 300.71
  Q 298.92 299.18 293.86 297.57
  Q 288.78 295.95 284.12 293.46
  Q 278.27 290.33 272.49 287.06
  Q 272.00 286.78 272.09 287.31
  L 273.54 296.00
  Q 273.73 297.09 274.32 297.96
  Q 274.71 298.52 275.96 299.17
  Q 277.06 299.74 277.92 300.64
  A 1.39 1.24 -71.2 0 1 278.28 301.49
  Q 278.74 310.19 278.30 318.87
  Q 277.54 333.45 277.54 333.64
  Q 276.93 347.08 274.75 364.25
  Q 271.13 392.74 263.71 416.25
  Q 263.14 416.66 262.54 416.58
  A 0.70 0.58 -88.3 0 1 262.04 415.94
  Q 261.95 413.97 261.97 412.00
  Q 261.98 411.35 261.70 411.63
  A 0.68 0.50 74.1 0 0 261.55 412.03
  L 261.46 415.75
  Q 259.99 387.22 257.95 358.74
  Q 256.63 340.18 256.25 312.50
  Q 256.23 311.09 256.39 310.09
  Q 256.70 308.19 256.70 307.74
  Q 256.85 292.99 256.03 277.70
  A 0.47 0.43 76.3 0 0 255.40 277.28
  L 248.96 280.50
  L 245.25 282.71
  L 234.96 288.50
  L 231.00 290.96
  L 218.71 297.50
  L 188.25 307.21
  L 176.75 311.71
  L 172.75 313.21
  Q 151.31 321.95 131.00 333.04
  Q 124.46 336.12 118.50 340.21
  L 118.25 340.29
  Q 117.32 340.34 117.04 339.54
  A 0.95 0.75 2.8 0 0 116.44 339.02
  L 113.96 338.25
  Q 115.72 332.79 117.64 327.39
  Q 118.00 326.38 119.04 322.13
  Q 119.69 319.46 121.04 317.00
  Q 122.48 315.61 122.50 313.54
  Q 125.38 305.63 129.03 298.05
  Q 136.76 281.95 145.29 266.25
  Q 146.78 265.20 145.65 264.10
  Q 144.36 262.84 142.79 262.00
  L 138.25 258.46
  L 120.54 244.25
  Q 120.48 244.02 120.25 243.96
  L 114.75 239.25
  L 106.79 232.25
  L 103.46 228.75
  Q 103.84 226.81 102.73 225.28
  Q 99.34 220.57 95.17 216.53
  Q 95.09 216.45 94.09 215.77
  Q 93.32 215.24 93.53 214.28
  A 0.87 0.77 -63.8 0 0 93.31 213.47
  Q 85.93 206.76 83.75 203.00
  Q 80.49 197.40 77.25 193.50
  Q 76.09 192.10 75.39 190.75
  Q 74.23 188.52 73.80 187.91
  Q 71.90 185.26 69.93 182.66
  Q 68.06 180.18 66.43 177.17
  Q 64.43 173.47 62.15 169.92
  Q 59.60 165.96 57.76 162.77
  Q 55.55 158.93 52.68 154.39
  A 2.96 2.96 -5.8 0 0 51.22 153.20
  Q 49.71 152.61 49.96 153.75
  L 47.46 148.00
  Q 48.11 145.40 51.00 145.46
  L 75.96 156.19
  Q 78.27 157.19 79.05 155.08
  L 80.46 151.26
  Q 81.14 149.42 79.21 148.63
  L 52.91 137.80
  A 1.01 0.99 29.0 0 1 52.46 136.29
  Q 53.65 134.66 54.39 133.06
  Q 55.58 130.48 56.06 129.72
  Q 92.15 72.44 153.21 42.75
  Q 155.22 43.34 158.00 42.50
  Q 163.75 40.76 169.50 39.03
  Q 172.51 38.12 177.74 35.83
  Q 182.64 33.68 186.25 33.25
  Q 189.39 32.87 192.21 31.48
  Q 193.11 31.04 192.36 30.96
  Q 192.10 30.93 192.34 30.88
  L 209.53 27.29
  A 0.30 0.16 -14.2 0 0 209.80 27.04
  Q 209.75 26.93 209.45 26.92
  Q 209.19 26.91 209.43 26.86
  Q 212.84 26.19 214.00 26.50
  Q 215.82 26.99 216.36 25.73
  A 0.78 0.70 -78.7 0 1 217.00 25.25
  Q 219.83 25.16 220.25 22.29
  L 225.50 21.46
  Q 231.67 21.80 237.75 20.71
  Q 282.29 16.92 325.00 29.79
  Z
  M 249.00 63.71
  L 248.75 63.79
  Q 241.93 63.71 235.21 64.75
  L 235.00 64.79
  Q 233.29 64.52 231.75 65.21
  Q 220.38 66.77 209.19 69.25
  Q 203.27 70.56 196.51 72.88
  Q 190.26 75.03 184.03 77.24
  Q 183.83 77.31 184.01 77.42
  Q 184.36 77.63 184.00 77.73
  Q 180.93 78.63 178.04 80.00
  Q 175.66 80.36 173.74 81.81
  Q 173.52 81.97 173.78 82.01
  L 174.00 82.04
  Q 168.87 84.08 164.23 87.05
  Q 163.89 87.26 163.32 87.36
  Q 162.05 87.59 161.50 88.79
  Q 158.91 89.37 157.00 91.21
  Q 153.96 92.43 151.71 94.75
  Q 148.62 94.56 145.00 97.00
  Q 141.44 99.39 138.16 102.15
  Q 137.81 102.45 135.23 104.13
  Q 133.72 105.11 132.69 106.69
  Q 131.42 108.62 130.00 109.50
  Q 125.93 112.02 124.29 116.50
  Q 109.95 130.41 99.31 146.31
  Q 95.09 152.62 90.96 160.75
  Q 89.63 162.27 91.25 163.25
  Q 93.91 164.87 95.00 165.21
  L 99.21 167.25
  Q 99.92 168.05 101.00 168.04
  Q 106.50 171.35 112.15 174.37
  Q 125.88 181.71 138.68 190.57
  Q 149.79 198.28 161.50 205.04
  Q 162.11 206.15 161.25 206.26
  A 0.27 0.26 -19.1 0 0 161.04 206.66
  Q 162.84 209.32 159.50 209.04
  Q 142.73 201.07 126.83 191.48
  Q 119.37 186.98 111.84 182.60
  Q 108.97 180.94 106.73 181.33
  Q 103.94 181.82 105.68 184.05
  Q 116.56 198.03 130.34 209.14
  Q 153.72 227.99 181.06 240.44
  Q 199.28 248.73 232.16 261.18
  Q 234.73 262.15 237.73 263.56
  Q 240.47 264.84 243.25 266.04
  L 255.50 272.94
  Q 255.94 273.19 255.93 272.68
  Q 255.45 249.22 254.36 225.79
  Q 254.35 225.72 254.28 221.21
  Q 254.22 217.46 253.50 212.00
  Q 253.18 209.57 252.76 201.83
  Q 252.54 197.74 252.86 191.66
  Q 253.20 185.09 252.96 178.50
  Q 254.21 140.87 252.88 99.44
  Q 252.86 98.87 253.08 98.35
  Q 253.54 97.27 252.79 96.00
  Q 253.46 96.11 253.75 95.46
  Q 257.55 108.00 259.29 121.00
  Q 259.37 123.75 260.46 126.25
  Q 266.38 163.25 269.25 200.60
  Q 269.25 200.69 270.04 214.41
  Q 270.46 221.75 271.37 229.52
  A 0.64 0.61 -9.7 0 0 272.14 230.03
  L 281.25 228.04
  Q 284.36 229.14 287.25 227.54
  L 287.96 227.50
  Q 291.57 227.84 294.75 226.04
  Q 314.46 222.98 332.31 214.06
  Q 334.25 213.10 337.40 212.06
  Q 340.25 211.12 342.39 209.91
  Q 353.16 203.82 363.51 197.04
  Q 373.32 190.61 383.06 184.06
  Q 389.64 179.64 403.00 172.21
  Q 404.23 172.23 405.00 171.29
  L 408.50 169.46
  Q 410.01 169.19 411.25 168.29
  L 418.04 164.50
  Q 421.73 163.82 419.54 161.25
  L 417.45 155.97
  Q 417.31 155.62 417.32 155.01
  Q 417.32 154.20 416.50 153.96
  Q 417.00 152.05 415.25 152.00
  Q 415.23 148.49 412.25 146.79
  Q 405.32 135.59 396.50 125.79
  Q 397.06 125.51 397.69 125.51
  Q 398.12 125.52 397.80 125.25
  Q 395.69 123.51 394.30 121.19
  Q 393.63 120.06 392.72 119.21
  Q 391.78 118.33 390.96 117.33
  Q 390.93 117.29 390.22 116.06
  Q 389.82 115.36 389.04 115.07
  Q 388.48 114.86 388.20 114.60
  Q 378.13 105.22 367.09 97.03
  Q 366.58 96.65 363.66 94.81
  Q 361.91 93.71 360.42 92.28
  Q 360.07 91.95 359.57 91.81
  Q 356.77 91.00 354.82 88.87
  A 1.81 1.73 -12.0 0 0 354.01 88.37
  Q 352.19 87.84 350.66 86.78
  Q 347.89 84.85 347.20 84.51
  Q 337.94 79.90 328.44 75.81
  Q 326.78 75.09 324.94 75.17
  Q 324.70 75.17 324.85 74.95
  Q 325.01 74.72 324.74 74.45
  Q 324.57 74.27 324.19 74.17
  Q 321.10 73.39 318.35 71.93
  Q 316.91 71.16 314.92 70.77
  Q 313.08 70.42 311.39 69.55
  A 1.80 1.71 54.9 0 0 310.45 69.36
  L 305.25 69.79
  Q 283.84 65.01 261.96 63.50
  Q 255.48 63.02 249.00 63.71
  Z
  M 403.00 181.21
  Q 372.00 199.29 353.44 209.19
  Q 347.61 212.30 335.83 217.42
  Q 335.14 217.72 333.07 218.27
  Q 331.62 218.65 330.41 219.46
  A 0.57 0.52 51.3 0 1 329.71 219.35
  Q 329.07 218.67 328.43 219.62
  A 0.21 0.19 30.6 0 0 328.52 219.90
  Q 328.81 220.07 328.25 220.25
  Q 301.10 228.93 278.56 232.69
  Q 277.18 232.92 273.71 233.25
  L 272.51 233.25
  A 0.63 0.62 5.5 0 0 271.89 233.75
  Q 271.15 237.58 272.46 241.25
  Q 272.77 251.32 274.25 261.29
  Q 273.79 264.83 276.50 262.71
  Q 294.88 255.67 313.01 248.02
  Q 348.93 232.87 380.44 209.94
  Q 393.34 200.54 406.04 184.50
  Q 409.39 181.41 404.75 180.75
  Q 404.11 180.66 403.00 181.21
  Z"
/>
<path fill="#4d3e10" d="
  M 237.75 20.71
  Q 231.67 21.80 225.50 21.46
  Q 231.57 20.10 237.75 20.71
  Z"
/>
<path fill="#bdae77" fill-opacity="0.741" d="
  M 220.25 22.29
  Q 219.83 25.16 217.00 25.25
  A 0.78 0.70 -78.7 0 0 216.36 25.73
  Q 215.82 26.99 214.00 26.50
  Q 212.84 26.19 209.43 26.86
  Q 209.19 26.91 209.45 26.92
  Q 209.75 26.93 209.80 27.04
  A 0.30 0.16 -14.2 0 1 209.53 27.29
  L 192.34 30.88
  Q 192.10 30.93 192.36 30.96
  Q 193.11 31.04 192.21 31.48
  Q 189.39 32.87 186.25 33.25
  Q 182.64 33.68 177.74 35.83
  Q 172.51 38.12 169.50 39.03
  Q 163.75 40.76 158.00 42.50
  Q 155.22 43.34 153.21 42.75
  Q 172.41 33.13 193.16 27.60
  Q 193.22 27.59 195.78 26.71
  Q 196.92 26.33 198.12 26.22
  Q 199.46 26.11 200.41 25.75
  Q 203.26 24.68 206.26 24.26
  Q 209.76 23.77 212.15 23.23
  Q 216.13 22.33 220.25 22.29
  Z"
/>
<path fill="#978c4e" fill-opacity="0.600" d="
  M 167.46 24.75
  Q 167.08 25.79 165.82 25.89
  Q 164.55 25.99 163.51 26.61
  Q 161.91 27.55 161.44 27.69
  Q 160.26 28.05 159.04 28.25
  Q 162.89 25.66 167.46 24.75
  Z"
/>
<path fill="#978c4e" fill-opacity="0.600" d="
  M 171.75 28.54
  Q 170.03 29.68 168.00 29.96
  Q 169.56 28.46 171.75 28.54
  Z"
/>
<path fill="#978c4e" fill-opacity="0.600" d="
  M 156.50 29.04
  Q 158.86 29.71 156.26 29.75
  Q 155.75 29.76 155.33 30.00
  Q 151.04 32.55 146.25 33.96
  Q 151.12 30.97 156.50 29.04
  Z"
/>
<path fill="#c9bc77" fill-opacity="0.769" d="
  M 325.00 29.79
  L 330.04 31.32
  Q 330.52 31.46 330.99 31.37
  Q 332.01 31.19 332.82 31.68
  Q 334.10 32.46 334.34 32.54
  Q 400.08 55.69 443.02 110.50
  Q 452.14 122.13 459.55 136.11
  A 0.65 0.64 63.0 0 1 459.27 136.99
  Q 445.96 143.61 434.19 150.69
  Q 432.15 151.91 431.46 153.25
  Q 430.74 154.25 430.88 155.51
  Q 431.04 156.98 430.35 156.37
  A 1.50 0.99 -81.4 0 1 429.95 155.50
  Q 429.66 153.17 428.29 151.25
  Q 430.26 149.83 432.17 148.33
  Q 434.28 146.68 436.15 145.57
  Q 445.28 140.21 454.02 135.98
  Q 455.75 135.13 454.80 133.46
  Q 452.58 129.57 450.96 126.64
  Q 448.93 122.95 446.04 119.92
  Q 445.80 119.68 445.21 119.43
  Q 444.35 119.07 444.42 118.00
  A 1.06 0.88 -70.5 0 0 444.11 117.17
  Q 443.54 116.66 442.99 116.12
  Q 442.47 115.61 442.10 114.86
  Q 439.06 108.59 433.78 103.99
  Q 433.52 103.76 433.87 103.83
  Q 435.21 104.09 433.77 103.17
  Q 433.49 102.99 433.28 102.78
  Q 425.94 95.22 418.56 87.69
  Q 413.44 82.45 409.94 79.78
  Q 408.11 78.39 407.21 77.54
  Q 405.92 76.33 404.65 75.10
  Q 401.92 72.45 398.63 70.66
  Q 396.24 69.35 394.33 67.69
  Q 391.32 65.09 387.25 62.75
  Q 386.56 62.35 387.05 62.08
  Q 387.38 61.90 387.06 61.73
  Q 377.15 56.33 367.47 50.51
  Q 365.03 49.05 362.30 48.31
  A 1.41 1.22 77.1 0 1 361.56 47.77
  Q 360.82 46.71 359.57 46.49
  A 0.39 0.37 -75.7 0 1 359.29 45.98
  Q 359.61 45.10 358.38 45.07
  Q 357.17 45.04 356.06 44.56
  Q 352.81 43.14 350.37 42.00
  Q 347.81 40.81 344.94 40.03
  Q 340.48 38.83 339.50 38.00
  Q 337.20 36.07 334.16 36.00
  A 0.68 0.41 -2.5 0 1 333.54 35.66
  Q 333.47 35.34 334.44 35.56
  Q 336.43 36.00 334.42 35.08
  Q 334.26 35.00 334.06 34.98
  Q 332.26 34.73 330.69 33.81
  Q 328.08 32.30 325.00 32.22
  Q 323.92 32.20 324.02 31.53
  Q 324.09 31.02 324.50 31.46
  Q 325.28 32.30 326.44 32.16
  Q 327.01 32.09 326.45 32.03
  Q 324.33 31.80 325.00 29.79
  Z"
/>
<path fill="#978c4e" fill-opacity="0.600" d="
  M 163.25 32.04
  L 154.25 35.71
  Q 153.31 35.20 154.39 34.98
  Q 154.71 34.92 154.93 34.78
  Q 158.74 32.31 163.25 32.04
  Z"
/>
<path fill="#978c4e" fill-opacity="0.600" d="
  M 145.21 34.50
  Q 143.85 36.58 141.21 36.50
  Q 142.94 34.90 145.21 34.50
  Z"
/>
<path fill="#978c4e" fill-opacity="0.600" d="
  M 152.75 36.54
  Q 151.10 37.86 149.00 38.29
  Q 148.82 38.33 148.71 38.26
  A 0.24 0.18 -44.8 0 1 148.76 37.91
  Q 150.51 36.59 152.75 36.54
  Z"
/>
<path fill="#131105" fill-opacity="0.604" d="
  M 143.75 41.04
  Q 142.28 42.79 140.00 43.21
  Q 141.63 41.68 143.75 41.04
  Z"
/>
<path fill="#0c0904" fill-opacity="0.984" d="
  M 428.29 151.25
  Q 429.66 153.17 429.95 155.50
  A 1.50 0.99 -81.4 0 0 430.35 156.37
  Q 431.04 156.98 430.88 155.51
  Q 430.74 154.25 431.46 153.25
  Q 431.76 155.40 433.25 156.79
  L 430.78 157.78
  A 0.58 0.52 -22.3 0 1 430.05 157.52
  L 428.29 153.50
  Q 421.77 139.89 411.25 126.75
  Q 367.46 72.07 299.23 57.35
  Q 234.69 43.42 175.17 68.70
  Q 165.80 72.68 157.23 77.52
  Q 117.43 100.00 91.50 138.25
  Q 88.28 142.99 81.72 155.36
  Q 81.12 156.49 81.15 157.25
  Q 81.22 158.81 82.95 158.73
  A 0.93 0.82 -75.1 0 0 83.67 158.25
  Q 86.37 153.26 89.09 148.28
  Q 92.08 142.81 95.02 138.65
  Q 135.54 81.23 204.00 61.86
  Q 226.43 55.52 245.75 54.75
  Q 286.20 53.14 326.27 68.19
  Q 375.79 86.79 408.56 128.19
  Q 417.76 139.81 426.21 154.50
  L 427.82 158.28
  A 1.11 0.80 55.4 0 1 427.80 159.21
  Q 427.34 159.89 426.06 160.06
  A 0.73 0.73 -14.5 0 1 425.31 159.62
  Q 420.41 147.67 413.11 137.40
  Q 372.08 79.66 303.06 62.46
  Q 264.64 52.89 225.85 58.76
  Q 216.00 60.25 206.29 62.88
  Q 168.87 72.99 137.63 96.42
  Q 121.34 108.63 106.81 125.81
  Q 93.13 141.99 84.66 159.49
  A 0.72 0.70 -72.6 0 1 83.93 159.88
  Q 81.66 159.56 80.08 157.88
  A 0.93 0.90 -59.1 0 1 79.88 157.01
  Q 80.61 154.57 82.75 150.75
  Q 107.09 107.39 150.44 80.69
  Q 166.36 70.88 180.87 65.25
  Q 216.69 51.35 253.00 51.00
  Q 268.89 50.85 289.00 54.24
  Q 366.55 67.30 414.44 129.06
  Q 420.62 137.04 428.29 151.25
  Z"
/>
<path fill="#e0cb5b" fill-opacity="0.957" d="
  M 428.29 153.50
  Q 427.64 154.55 426.21 154.50
  Q 417.76 139.81 408.56 128.19
  Q 375.79 86.79 326.27 68.19
  Q 286.20 53.14 245.75 54.75
  Q 226.43 55.52 204.00 61.86
  Q 135.54 81.23 95.02 138.65
  Q 92.08 142.81 89.09 148.28
  Q 86.37 153.26 83.67 158.25
  A 0.93 0.82 -75.1 0 1 82.95 158.73
  Q 81.22 158.81 81.15 157.25
  Q 81.12 156.49 81.72 155.36
  Q 88.28 142.99 91.50 138.25
  Q 117.43 100.00 157.23 77.52
  Q 165.80 72.68 175.17 68.70
  Q 234.69 43.42 299.23 57.35
  Q 367.46 72.07 411.25 126.75
  Q 421.77 139.89 428.29 153.50
  Z"
/>
<path fill="#978c4e" fill-opacity="0.600" d="
  M 261.96 63.50
  L 249.00 63.71
  Q 255.48 63.02 261.96 63.50
  Z"
/>
<path fill="#0c0c0a" fill-opacity="0.847" d="
  M 248.75 63.79
  Q 242.02 64.80 235.21 64.75
  Q 241.93 63.71 248.75 63.79
  Z"
/>
<path fill="#0c0c0a" fill-opacity="0.847" d="
  M 235.00 64.79
  Q 233.50 65.59 231.75 65.21
  Q 233.29 64.52 235.00 64.79
  Z"
/>
<path fill="#aca35e" fill-opacity="0.671" d="
  M 396.50 125.79
  Q 394.54 123.98 392.73 122.02
  Q 374.64 102.54 353.00 90.00
  Q 339.14 81.97 322.16 75.34
  Q 319.14 74.16 313.71 72.56
  Q 309.44 71.31 305.25 69.79
  L 310.45 69.36
  A 1.80 1.71 54.9 0 1 311.39 69.55
  Q 313.08 70.42 314.92 70.77
  Q 316.91 71.16 318.35 71.93
  Q 321.10 73.39 324.19 74.17
  Q 324.57 74.27 324.74 74.45
  Q 325.01 74.72 324.85 74.95
  Q 324.70 75.17 324.94 75.17
  Q 326.78 75.09 328.44 75.81
  Q 337.94 79.90 347.20 84.51
  Q 347.89 84.85 350.66 86.78
  Q 352.19 87.84 354.01 88.37
  A 1.81 1.73 -12.0 0 1 354.82 88.87
  Q 356.77 91.00 359.57 91.81
  Q 360.07 91.95 360.42 92.28
  Q 361.91 93.71 363.66 94.81
  Q 366.58 96.65 367.09 97.03
  Q 378.13 105.22 388.20 114.60
  Q 388.48 114.86 389.04 115.07
  Q 389.82 115.36 390.22 116.06
  Q 390.93 117.29 390.96 117.33
  Q 391.78 118.33 392.72 119.21
  Q 393.63 120.06 394.30 121.19
  Q 395.69 123.51 397.80 125.25
  Q 398.12 125.52 397.69 125.51
  Q 397.06 125.51 396.50 125.79
  Z"
/>
<path fill="#aca35e" fill-opacity="0.671" d="
  M 178.04 80.00
  L 174.00 82.04
  L 173.78 82.01
  Q 173.52 81.97 173.74 81.81
  Q 175.66 80.36 178.04 80.00
  Z"
/>
<path fill="#040401" fill-opacity="0.275" d="
  M 314.76 86.89
  Q 316.30 87.39 317.79 88.05
  Q 318.28 88.26 317.76 88.28
  L 313.57 88.43
  A 1.04 0.80 67.2 0 1 312.81 88.00
  Q 312.17 87.11 310.94 87.06
  Q 309.38 87.00 308.75 85.77
  A 0.33 0.32 -12.4 0 1 309.06 85.31
  Q 310.75 85.34 312.31 85.94
  Q 314.67 86.86 314.76 86.89
  Z"
/>
<path fill="#978c4e" fill-opacity="0.600" d="
  M 161.50 88.79
  Q 160.92 89.20 160.33 89.61
  Q 160.03 89.81 159.37 90.59
  Q 158.53 91.57 157.00 91.21
  Q 158.91 89.37 161.50 88.79
  Z"
/>
<path fill="#978c4e" fill-opacity="0.600" d="
  M 253.75 95.46
  Q 253.46 96.11 252.79 96.00
  Q 251.94 94.27 252.93 92.89
  Q 253.25 92.44 253.48 92.95
  Q 253.98 94.12 253.75 95.46
  Z"
/>
<path fill="#aca35e" fill-opacity="0.671" d="
  M 151.71 94.75
  Q 137.22 104.65 124.29 116.50
  Q 125.93 112.02 130.00 109.50
  Q 131.42 108.62 132.69 106.69
  Q 133.72 105.11 135.23 104.13
  Q 137.81 102.45 138.16 102.15
  Q 141.44 99.39 145.00 97.00
  Q 148.62 94.56 151.71 94.75
  Z"
/>
<path fill="#040401" fill-opacity="0.275" d="
  M 120.17 121.94
  Q 120.59 121.89 120.36 122.24
  Q 119.31 123.84 119.10 122.56
  A 0.51 0.48 -7.3 0 1 119.55 122.01
  L 120.17 121.94
  Z"
/>
<path fill="#0c0904" fill-opacity="0.984" d="
  M 259.29 121.00
  Q 261.05 123.28 260.46 126.25
  Q 259.37 123.75 259.29 121.00
  Z"
/>
<path fill="#fdeb92" d="
  M 345.75 147.04
  Q 347.84 150.45 352.00 149.21
  Q 356.33 148.93 360.50 150.04
  L 352.71 158.25
  Q 351.91 160.99 353.46 163.50
  L 355.76 170.73
  Q 355.93 171.27 355.44 170.99
  L 346.75 165.96
  L 344.43 164.26
  A 0.81 0.80 -42.2 0 0 343.56 164.22
  L 336.75 168.21
  L 331.41 171.26
  Q 330.86 171.58 331.05 170.96
  L 334.71 159.00
  Q 334.66 156.96 332.79 156.00
  L 324.80 149.18
  Q 323.28 147.88 325.18 148.00
  L 336.78 148.72
  A 1.67 1.54 10.9 0 0 338.43 147.70
  Q 340.26 142.55 341.34 137.22
  Q 341.67 135.58 342.32 136.65
  Q 342.49 136.94 342.55 137.40
  Q 343.29 142.51 345.75 147.04
  Z"
/>
<path fill="#fdeb92" d="
  M 172.21 146.50
  Q 174.05 150.58 178.50 148.54
  L 188.70 148.19
  Q 190.46 148.13 188.98 149.12
  Q 183.87 152.54 179.52 157.37
  Q 178.34 158.68 178.81 160.24
  L 181.80 170.12
  Q 182.13 171.23 181.16 170.64
  L 171.75 164.96
  Q 170.92 163.63 169.43 164.18
  Q 166.22 165.37 163.50 167.46
  L 158.19 170.19
  Q 156.74 170.94 157.25 169.51
  L 160.54 160.25
  Q 161.52 158.91 160.81 157.69
  Q 159.62 155.64 157.04 154.00
  L 151.28 148.81
  Q 149.99 147.66 151.69 147.69
  L 157.75 147.79
  L 164.00 148.71
  Q 165.22 148.79 165.25 147.50
  Q 165.30 145.14 166.06 144.06
  Q 167.90 141.49 167.79 138.33
  Q 167.76 137.52 167.84 137.18
  Q 168.14 136.01 169.08 136.92
  Q 169.42 137.25 169.55 137.83
  Q 170.51 142.28 172.21 146.50
  Z"
/>
<path fill="#c2af5b" fill-opacity="0.812" d="
  M 472.54 145.25
  L 476.46 145.00
  Q 490.35 172.16 496.79 202.19
  Q 497.62 206.08 498.64 209.92
  Q 502.43 224.22 503.25 242.75
  Q 503.48 247.99 503.77 264.50
  Q 504.04 279.73 501.63 294.69
  Q 500.26 303.13 497.67 314.29
  Q 485.76 365.39 454.31 406.81
  Q 436.96 429.68 413.40 449.39
  Q 364.16 490.60 299.00 502.75
  Q 280.44 506.21 264.25 506.72
  Q 255.05 507.01 244.26 506.45
  Q 214.96 504.93 185.44 495.81
  Q 142.50 482.55 104.56 452.94
  Q 85.80 438.29 72.22 422.87
  Q 66.41 416.27 59.53 407.41
  Q 17.67 353.47 10.45 284.50
  Q 2.65 209.93 37.12 142.46
  A 0.67 0.67 -58.8 0 1 38.09 142.22
  Q 41.28 144.42 40.19 147.69
  Q 39.53 149.65 37.27 154.55
  Q 19.68 192.73 15.75 233.75
  Q 13.71 255.07 15.24 278.48
  Q 17.98 320.41 35.56 358.50
  Q 54.10 398.68 87.75 431.00
  Q 116.56 458.67 150.02 475.86
  Q 158.99 480.47 168.21 484.13
  Q 204.94 498.69 246.50 501.00
  Q 258.70 501.68 264.51 501.40
  Q 343.13 497.61 404.93 449.72
  Q 409.37 446.29 413.23 442.23
  Q 414.10 441.32 415.13 440.59
  Q 416.58 439.59 417.12 439.11
  Q 468.00 393.82 488.36 329.28
  Q 491.34 319.85 493.31 309.92
  Q 509.08 230.72 476.57 156.57
  Q 476.55 156.51 474.59 152.68
  Q 472.81 149.21 472.54 145.25
  Z"
/>
<path fill="#736d24" fill-opacity="0.639" d="
  M 476.46 145.00
  L 472.54 145.25
  Q 474.67 139.38 476.46 145.00
  Z"
/>
<path fill="#c9bc77" fill-opacity="0.769" d="
  M 51.00 145.46
  Q 48.11 145.40 47.46 148.00
  L 46.12 144.58
  A 0.64 0.61 -6.0 0 1 46.82 143.76
  Q 49.08 144.10 51.00 145.46
  Z"
/>
<path fill="#0c0904" fill-opacity="0.984" d="
  M 178.50 148.54
  Q 174.05 150.58 172.21 146.50
  Q 174.72 148.88 178.50 148.54
  Z"
/>
<path fill="#978c4e" fill-opacity="0.600" d="
  M 412.25 146.79
  Q 415.23 148.49 415.25 152.00
  L 412.25 146.79
  Z"
/>
<path fill="#0c0904" fill-opacity="0.984" d="
  M 345.75 147.04
  Q 348.92 148.64 352.46 148.75
  Q 352.29 149.02 352.00 149.21
  Q 347.84 150.45 345.75 147.04
  Z"
/>
<path fill="#0c0c0a" fill-opacity="0.847" d="
  M 157.75 147.79
  L 163.12 147.94
  A 0.84 0.72 -11.0 0 1 163.79 148.32
  L 164.00 148.71
  L 157.75 147.79
  Z"
/>
<path fill="#d1c274" fill-opacity="0.992" d="
  M 360.50 150.04
  Q 356.33 148.93 352.00 149.21
  Q 352.29 149.02 352.46 148.75
  L 361.93 147.86
  Q 362.46 147.81 362.21 148.25
  Q 361.57 149.32 360.50 150.04
  Z"
/>
<path fill="#aca35e" fill-opacity="0.671" d="
  M 415.25 152.00
  Q 417.00 152.05 416.50 153.96
  Q 415.55 153.18 415.25 152.00
  Z"
/>
<path fill="#d7d27f" fill-opacity="0.992" d="
  M 103.46 228.75
  Q 89.60 215.30 78.94 200.81
  Q 62.90 179.03 49.96 153.75
  Q 49.71 152.61 51.22 153.20
  A 2.96 2.96 -5.8 0 1 52.68 154.39
  Q 55.55 158.93 57.76 162.77
  Q 59.60 165.96 62.15 169.92
  Q 64.43 173.47 66.43 177.17
  Q 68.06 180.18 69.93 182.66
  Q 71.90 185.26 73.80 187.91
  Q 74.23 188.52 75.39 190.75
  Q 76.09 192.10 77.25 193.50
  Q 80.49 197.40 83.75 203.00
  Q 85.93 206.76 93.31 213.47
  A 0.87 0.77 -63.8 0 1 93.53 214.28
  Q 93.32 215.24 94.09 215.77
  Q 95.09 216.45 95.17 216.53
  Q 99.34 220.57 102.73 225.28
  Q 103.84 226.81 103.46 228.75
  Z"
/>
<path fill="#0c0c0a" fill-opacity="0.847" d="
  M 157.04 154.00
  Q 159.62 155.64 160.81 157.69
  Q 161.52 158.91 160.54 160.25
  L 160.65 158.99
  A 1.33 0.97 -68.9 0 0 160.42 158.13
  L 157.04 154.00
  Z"
/>
<path fill="#0c0904" fill-opacity="0.984" d="
  M 332.79 156.00
  Q 334.66 156.96 334.71 159.00
  Q 333.24 157.79 332.79 156.00
  Z"
/>
<path fill="#fdeb92" d="
  M 67.00 198.54
  Q 66.11 200.24 65.62 202.08
  Q 64.75 205.28 64.72 205.38
  Q 55.84 233.03 55.50 259.25
  Q 54.80 313.01 82.44 360.81
  Q 87.88 370.23 93.79 378.20
  Q 99.51 385.92 104.66 391.87
  Q 109.66 397.65 116.69 404.56
  Q 128.36 416.04 135.32 421.50
  Q 135.60 421.72 135.87 421.75
  Q 136.18 421.79 136.50 421.71
  Q 136.73 421.77 136.79 422.00
  L 127.67 446.03
  Q 127.45 446.59 127.77 446.08
  L 131.04 440.75
  Q 136.93 434.39 141.04 427.90
  A 1.68 1.68 32.4 0 1 143.37 427.38
  Q 172.82 446.21 205.50 454.50
  Q 213.98 456.65 219.46 457.25
  Q 220.01 457.66 220.75 457.54
  Q 224.20 458.52 232.00 459.50
  Q 281.63 465.72 327.15 449.08
  Q 355.89 438.58 378.94 420.19
  Q 417.35 389.54 438.56 344.31
  Q 446.72 326.92 450.21 310.75
  Q 452.12 300.08 454.50 289.50
  Q 455.15 286.60 455.97 271.50
  Q 458.02 233.82 445.85 198.53
  A 1.63 1.61 -38.1 0 1 446.03 197.11
  Q 451.14 189.41 456.31 181.81
  Q 460.60 175.51 467.79 161.00
  L 471.96 160.75
  Q 482.74 183.32 487.71 207.83
  A 1.15 0.15 45.6 0 0 488.24 208.54
  Q 488.45 208.78 488.51 209.25
  Q 490.70 225.45 491.95 241.75
  Q 497.92 319.43 457.50 383.25
  Q 421.91 439.44 361.89 470.50
  Q 352.75 475.24 343.74 478.86
  Q 323.85 486.85 302.00 491.50
  Q 297.80 492.39 295.25 492.54
  L 291.25 493.46
  Q 285.30 494.52 279.25 494.29
  L 272.75 495.29
  Q 241.88 497.55 211.50 491.71
  L 190.54 486.25
  Q 182.98 484.20 179.00 482.75
  Q 143.99 469.98 114.50 447.21
  L 110.29 444.25
  Q 69.46 411.67 45.06 364.94
  Q 33.47 342.72 27.46 319.25
  Q 27.81 317.18 27.06 315.26
  Q 26.45 313.71 26.46 315.50
  Q 24.26 307.12 23.46 298.50
  L 23.46 294.90
  A 0.47 0.34 -89.4 0 0 23.13 294.43
  Q 22.86 294.42 22.92 295.01
  Q 22.98 295.65 22.79 295.04
  L 22.54 294.25
  Q 22.13 288.50 21.53 282.75
  Q 19.36 261.89 21.00 242.00
  Q 21.31 238.21 22.48 225.84
  Q 23.36 216.54 24.74 209.77
  Q 30.26 182.71 41.76 157.49
  Q 42.54 155.76 43.19 157.54
  Q 44.46 161.03 46.32 164.69
  Q 55.31 182.43 67.00 198.54
  Z"
/>
<path fill="#736d24" fill-opacity="0.639" d="
  M 471.96 160.75
  L 467.79 161.00
  L 469.47 157.40
  Q 469.98 156.31 470.46 157.40
  L 471.96 160.75
  Z"
/>
<path fill="#0c0904" fill-opacity="0.984" d="
  M 352.71 158.25
  L 353.46 163.50
  Q 351.91 160.99 352.71 158.25
  Z"
/>
<path fill="#131105" fill-opacity="0.604" d="
  M 90.96 160.75
  Q 90.71 162.89 92.69 163.31
  Q 93.69 163.53 95.00 165.21
  Q 93.91 164.87 91.25 163.25
  Q 89.63 162.27 90.96 160.75
  Z"
/>
<path fill="#0c0904" fill-opacity="0.984" d="
  M 419.54 161.25
  Q 421.73 163.82 418.04 164.50
  Q 418.39 162.69 419.54 161.25
  Z"
/>
<path fill="#0c0904" fill-opacity="0.984" d="
  M 171.75 164.96
  Q 169.13 164.23 167.03 165.78
  Q 165.42 166.96 163.50 167.46
  Q 166.22 165.37 169.43 164.18
  Q 170.92 163.63 171.75 164.96
  Z"
/>
<path fill="#0c0904" fill-opacity="0.984" d="
  M 346.75 165.96
  L 343.49 165.08
  A 1.31 0.47 -32.8 0 0 342.59 165.29
  L 336.75 168.21
  L 343.56 164.22
  A 0.81 0.80 -42.2 0 1 344.43 164.26
  L 346.75 165.96
  Z"
/>
<path fill="#131105" fill-opacity="0.604" d="
  M 101.00 168.04
  Q 99.92 168.05 99.21 167.25
  Q 100.85 166.48 101.00 168.04
  Z"
/>
<path fill="#131105" fill-opacity="0.604" d="
  M 411.25 168.29
  Q 410.01 169.19 408.50 169.46
  Q 407.68 167.13 408.80 167.25
  Q 408.99 167.27 409.94 167.87
  Q 410.47 168.21 411.25 168.29
  Z"
/>
<path fill="#131105" fill-opacity="0.604" d="
  M 405.00 171.29
  Q 404.23 172.23 403.00 172.21
  Q 402.38 171.55 403.25 171.54
  Q 404.14 171.53 405.00 171.29
  Z"
/>
<path fill="#ac8a2c" fill-opacity="0.984" d="
  M 252.96 178.50
  Q 253.20 185.09 252.86 191.66
  Q 252.54 197.74 252.76 201.83
  Q 253.18 209.57 253.50 212.00
  Q 254.22 217.46 254.28 221.21
  Q 254.35 225.72 254.36 225.79
  Q 255.45 249.22 255.93 272.68
  Q 255.94 273.19 255.50 272.94
  L 243.25 266.04
  Q 243.93 266.13 244.54 265.94
  A 0.94 0.78 89.7 0 0 245.10 265.25
  Q 246.05 260.54 246.50 253.00
  Q 247.42 237.57 249.96 213.27
  Q 249.97 213.15 250.39 207.72
  Q 250.68 204.08 251.46 200.50
  Q 251.42 201.30 251.83 201.16
  A 0.63 0.58 78.3 0 0 252.22 200.51
  L 251.79 196.25
  L 252.96 178.50
  Z"
/>
<path fill="#0c0c0a" fill-opacity="0.847" d="
  M 406.04 184.50
  Q 405.63 183.69 405.85 182.64
  A 0.26 0.26 -61.7 0 0 405.78 182.40
  Q 404.63 181.22 403.00 181.21
  Q 404.11 180.66 404.75 180.75
  Q 409.39 181.41 406.04 184.50
  Z"
/>
<path fill="#050404" fill-opacity="0.047" d="
  M 403.00 181.21
  Q 404.63 181.22 405.78 182.40
  A 0.26 0.26 -61.7 0 1 405.85 182.64
  Q 405.63 183.69 406.04 184.50
  Q 393.34 200.54 380.44 209.94
  Q 348.93 232.87 313.01 248.02
  Q 294.88 255.67 276.50 262.71
  Q 274.97 263.01 275.53 262.26
  Q 275.80 261.89 275.87 261.68
  Q 276.30 260.41 274.75 261.75
  Q 274.59 262.64 274.25 261.29
  Q 272.77 251.32 272.46 241.25
  L 272.37 236.05
  A 1.11 1.00 69.8 0 1 272.69 235.25
  Q 273.59 234.43 273.71 233.25
  Q 277.18 232.92 278.56 232.69
  Q 301.10 228.93 328.25 220.25
  Q 328.81 220.07 328.52 219.90
  A 0.21 0.19 30.6 0 1 328.43 219.62
  Q 329.07 218.67 329.71 219.35
  A 0.57 0.52 51.3 0 0 330.41 219.46
  Q 331.62 218.65 333.07 218.27
  Q 335.14 217.72 335.83 217.42
  Q 347.61 212.30 353.44 209.19
  Q 372.00 199.29 403.00 181.21
  Z"
/>
<path fill="#0c0c0a" fill-opacity="0.847" d="
  M 251.79 196.25
  L 252.22 200.51
  A 0.63 0.58 78.3 0 1 251.83 201.16
  Q 251.42 201.30 251.46 200.50
  L 251.79 196.25
  Z"
/>
<path fill="#675915" fill-opacity="0.984" d="
  M 67.00 198.54
  Q 68.97 199.67 68.71 202.00
  L 68.54 202.00
  Q 67.65 199.80 66.78 202.30
  Q 58.10 227.28 56.99 253.75
  Q 54.60 310.68 82.81 359.76
  Q 83.03 360.14 83.49 360.44
  Q 84.37 361.03 84.96 362.00
  Q 85.63 364.77 87.24 367.06
  Q 89.40 370.14 89.44 370.20
  Q 99.80 387.00 114.21 400.50
  Q 124.61 411.50 136.32 421.10
  A 0.50 0.49 20.3 0 1 136.50 421.48
  L 136.50 421.71
  Q 136.18 421.79 135.87 421.75
  Q 135.60 421.72 135.32 421.50
  Q 128.36 416.04 116.69 404.56
  Q 109.66 397.65 104.66 391.87
  Q 99.51 385.92 93.79 378.20
  Q 87.88 370.23 82.44 360.81
  Q 54.80 313.01 55.50 259.25
  Q 55.84 233.03 64.72 205.38
  Q 64.75 205.28 65.62 202.08
  Q 66.11 200.24 67.00 198.54
  Z"
/>
<path fill="#e0cb5b" fill-opacity="0.957" d="
  M 68.54 202.00
  Q 67.23 208.18 66.25 211.50
  Q 55.35 248.61 60.71 286.97
  Q 63.67 308.21 68.25 320.75
  Q 71.07 328.47 73.71 336.25
  Q 78.55 348.88 85.04 360.75
  L 84.96 362.00
  Q 84.37 361.03 83.49 360.44
  Q 83.03 360.14 82.81 359.76
  Q 54.60 310.68 56.99 253.75
  Q 58.10 227.28 66.78 202.30
  Q 67.65 199.80 68.54 202.00
  Z"
/>
<path fill="#4d3e10" d="
  M 68.54 202.00
  L 68.71 202.00
  Q 68.39 203.91 69.25 205.54
  Q 50.47 266.49 71.79 326.50
  L 73.71 336.25
  Q 71.07 328.47 68.25 320.75
  Q 63.67 308.21 60.71 286.97
  Q 55.35 248.61 66.25 211.50
  Q 67.23 208.18 68.54 202.00
  Z"
/>
<path fill="#978c4e" fill-opacity="0.600" d="
  M 443.25 204.96
  Q 442.68 203.73 441.29 204.00
  Q 443.01 201.75 443.25 204.96
  Z"
/>
<path fill="#cab85e" fill-opacity="0.804" d="
  M 67.46 248.25
  Q 66.55 252.20 66.79 256.25
  Q 64.99 305.81 87.00 348.00
  Q 102.66 378.01 127.10 401.40
  Q 134.17 408.18 138.94 411.31
  Q 140.98 412.65 140.25 414.71
  Q 139.47 416.46 138.06 415.44
  Q 112.54 396.88 94.77 370.28
  Q 89.24 361.99 84.29 353.25
  Q 77.02 340.39 71.79 326.50
  Q 50.47 266.49 69.25 205.54
  Q 69.87 202.41 70.98 204.30
  Q 71.40 205.00 71.82 205.45
  Q 73.28 207.01 74.13 208.98
  A 1.20 1.06 -45.9 0 1 74.09 209.89
  Q 73.37 211.41 73.49 212.10
  Q 73.78 213.68 73.33 215.23
  Q 68.28 232.53 67.46 248.25
  Z
  M 66.31 242.45
  Q 66.31 265.91 66.51 242.50
  Q 66.52 242.36 66.45 242.32
  Q 66.31 242.23 66.31 242.45
  Z
  M 64.81 257.06
  L 64.75 274.01
  Q 64.75 274.58 64.78 274.01
  Q 65.30 265.54 64.84 257.06
  Q 64.81 256.48 64.81 257.06
  Z
  M 133.63 410.53
  Q 133.41 410.58 133.61 410.71
  L 135.90 412.27
  Q 136.62 412.76 136.33 411.98
  Q 135.64 410.11 133.63 410.53
  Z"
/>
<path fill="#d6bd60" fill-opacity="0.929" d="
  M 441.29 204.00
  Q 442.68 203.73 443.25 204.96
  Q 448.33 219.60 450.25 237.00
  Q 453.39 265.47 449.21 292.59
  Q 447.72 302.24 444.84 312.10
  Q 425.11 379.65 367.75 421.71
  L 364.71 423.75
  Q 350.03 433.61 333.96 441.00
  L 330.25 442.46
  Q 297.81 455.55 262.75 456.04
  Q 247.44 456.60 232.25 454.54
  L 231.75 454.46
  L 225.04 453.75
  L 210.25 450.71
  L 206.25 449.54
  L 199.25 447.71
  L 193.29 445.75
  Q 177.39 440.02 162.50 432.04
  Q 161.53 431.17 160.29 430.75
  Q 154.37 427.08 148.69 423.06
  Q 146.73 421.68 146.25 420.71
  Q 146.50 419.19 148.00 418.96
  Q 155.09 422.19 161.69 426.31
  Q 164.51 428.08 178.79 434.49
  Q 197.30 442.80 217.25 446.54
  Q 220.98 448.00 225.00 447.96
  Q 225.95 448.34 227.00 448.29
  Q 231.92 450.32 237.21 450.00
  Q 247.33 450.32 266.75 450.50
  Q 270.97 450.54 274.04 450.00
  Q 276.11 450.29 278.00 449.54
  Q 280.11 449.41 282.21 449.35
  Q 284.11 449.30 286.31 448.66
  Q 289.70 447.67 293.25 447.46
  Q 297.10 447.38 301.19 446.20
  Q 301.69 446.06 302.19 445.96
  Q 307.70 444.82 309.75 443.54
  Q 311.44 443.56 312.75 442.46
  Q 314.59 443.09 315.00 441.79
  Q 315.96 441.52 316.95 441.28
  Q 317.94 441.05 318.84 440.60
  Q 322.77 438.66 327.00 437.46
  Q 330.54 437.11 334.25 435.00
  Q 335.07 434.53 335.25 434.00
  Q 336.78 433.80 340.25 432.00
  Q 342.92 430.62 345.54 429.15
  Q 345.59 429.11 347.67 428.21
  Q 349.07 427.60 350.00 426.29
  Q 351.13 425.96 352.50 424.75
  Q 354.25 423.21 356.67 421.97
  Q 359.56 420.49 360.95 419.45
  Q 371.44 411.62 382.56 401.31
  Q 413.12 372.99 430.23 334.95
  Q 437.08 319.71 440.95 303.53
  Q 443.17 294.23 444.33 283.85
  Q 446.53 264.04 445.15 244.06
  Q 443.88 225.73 438.31 208.44
  A 1.76 1.76 -28.1 0 1 438.90 206.51
  Q 441.09 204.79 441.29 204.00
  Z
  M 308.7375 448.6776
  A 1.35 0.27 -3.5 0 0 307.3735 448.4905
  A 1.35 0.27 -3.5 0 0 306.0425 448.8424
  A 1.35 0.27 -3.5 0 0 307.4065 449.0295
  A 1.35 0.27 -3.5 0 0 308.7375 448.6776
  Z"
/>
<path fill="#bdae77" fill-opacity="0.741" d="
  M 161.50 205.04
  Q 164.47 206.81 167.45 208.56
  Q 170.72 210.48 173.54 211.85
  Q 191.44 220.51 210.69 225.38
  Q 216.49 226.85 224.06 227.79
  Q 230.82 228.62 237.59 229.40
  Q 239.36 229.60 239.38 229.62
  Q 240.07 230.10 239.04 232.19
  A 0.97 0.97 17.1 0 1 238.03 232.72
  Q 232.18 231.91 226.22 231.16
  Q 219.38 230.30 214.49 229.19
  Q 185.75 222.64 159.50 209.04
  Q 162.84 209.32 161.04 206.66
  A 0.27 0.26 -19.1 0 1 161.25 206.26
  Q 162.11 206.15 161.50 205.04
  Z"
/>
<path fill="#040401" fill-opacity="0.275" d="
  M 449.17 216.04
  Q 450.12 217.77 448.90 218.93
  Q 448.49 219.31 448.38 218.76
  Q 448.01 217.03 448.61 215.36
  A 0.43 0.34 -66.6 0 1 449.13 215.08
  Q 449.34 215.20 449.20 215.47
  A 0.66 0.50 -49.9 0 0 449.17 216.04
  Z"
/>
<path fill="#736d24" fill-opacity="0.639" d="
  M 294.75 226.04
  Q 291.57 227.84 287.96 227.50
  Q 291.22 226.21 294.75 226.04
  Z"
/>
<path fill="#736d24" fill-opacity="0.639" d="
  M 287.25 227.54
  Q 284.36 229.14 281.25 228.04
  L 287.25 227.54
  Z"
/>
<path fill="#0c0904" fill-opacity="0.984" d="
  M 106.79 232.25
  L 114.75 239.25
  Q 110.21 236.40 106.79 232.25
  Z"
/>
<path fill="#0c0c0a" fill-opacity="0.847" d="
  M 273.71 233.25
  Q 273.59 234.43 272.69 235.25
  A 1.11 1.00 69.8 0 0 272.37 236.05
  L 272.46 241.25
  Q 271.15 237.58 271.89 233.75
  A 0.63 0.62 5.5 0 1 272.51 233.25
  L 273.71 233.25
  Z"
/>
<path fill="#0c0904" fill-opacity="0.984" d="
  M 114.75 239.25
  L 120.25 243.96
  Q 116.79 242.48 114.75 239.25
  Z"
/>
<path fill="#aca35e" fill-opacity="0.671" d="
  M 66.45 242.32
  Q 66.52 242.36 66.51 242.50
  Q 66.31 265.91 66.31 242.45
  Q 66.31 242.23 66.45 242.32
  Z"
/>
<path fill="#0c0904" fill-opacity="0.984" d="
  M 120.54 244.25
  L 138.25 258.46
  Q 135.95 257.55 134.12 255.99
  Q 130.91 253.26 130.48 252.95
  Q 125.10 249.08 120.54 244.25
  Z"
/>
<path fill="#131105" fill-opacity="0.604" d="
  M 67.46 248.25
  L 66.79 256.25
  Q 66.55 252.20 67.46 248.25
  Z"
/>
<path fill="#cab85e" fill-opacity="0.804" d="
  M 64.84 257.06
  Q 65.30 265.54 64.78 274.01
  Q 64.75 274.58 64.75 274.01
  L 64.81 257.06
  Q 64.81 256.48 64.84 257.06
  Z"
/>
<path fill="#131105" fill-opacity="0.604" d="
  M 276.50 262.71
  Q 273.79 264.83 274.25 261.29
  Q 274.59 262.64 274.75 261.75
  Q 276.30 260.41 275.87 261.68
  Q 275.80 261.89 275.53 262.26
  Q 274.97 263.01 276.50 262.71
  Z"
/>
<path fill="#0c0904" fill-opacity="0.984" d="
  M 142.79 262.00
  Q 144.36 262.84 145.65 264.10
  Q 146.78 265.20 145.29 266.25
  Q 144.99 263.63 142.79 262.00
  Z"
/>
<path fill="#0c0c0a" fill-opacity="0.847" d="
  M 248.96 280.50
  Q 247.61 282.40 245.25 282.71
  L 248.96 280.50
  Z"
/>
<path fill="#131105" fill-opacity="0.604" d="
  M 304.00 300.71
  Q 293.50 298.47 283.62 294.31
  Q 282.86 293.99 280.09 292.30
  Q 278.53 291.35 276.73 290.87
  A 1.22 1.14 35.2 0 0 275.81 291.00
  Q 273.18 292.60 273.54 296.00
  L 272.09 287.31
  Q 272.00 286.78 272.49 287.06
  Q 278.27 290.33 284.12 293.46
  Q 288.78 295.95 293.86 297.57
  Q 298.92 299.18 304.00 300.71
  Z"
/>
<path fill="#0c0c0a" fill-opacity="0.847" d="
  M 234.96 288.50
  Q 233.43 290.44 231.00 290.96
  L 234.96 288.50
  Z"
/>
<path fill="#aca35e" fill-opacity="0.671" d="
  M 22.54 294.25
  L 22.79 295.04
  Q 22.98 295.65 22.92 295.01
  Q 22.86 294.42 23.13 294.43
  A 0.47 0.34 -89.4 0 1 23.46 294.90
  L 23.46 298.50
  L 22.54 294.25
  Z"
/>
<path fill="#0c0c0a" fill-opacity="0.847" d="
  M 218.71 297.50
  Q 217.94 298.72 216.49 298.58
  A 1.46 1.27 27.9 0 0 215.59 298.79
  Q 214.44 299.54 212.81 300.06
  Q 203.72 303.00 196.27 304.97
  Q 195.73 305.12 192.38 306.41
  Q 190.41 307.16 188.25 307.21
  L 218.71 297.50
  Z"
/>
<path fill="#0c0904" fill-opacity="0.984" d="
  M 450.21 310.75
  Q 446.72 326.92 438.56 344.31
  Q 417.35 389.54 378.94 420.19
  Q 355.89 438.58 327.15 449.08
  Q 281.63 465.72 232.00 459.50
  Q 224.20 458.52 220.75 457.54
  Q 222.09 457.29 220.48 457.11
  Q 220.14 457.07 220.48 457.08
  Q 227.59 457.45 229.94 457.94
  Q 232.62 458.49 229.31 458.45
  Q 228.82 458.44 229.30 458.50
  Q 235.00 459.19 240.75 459.02
  Q 241.22 459.00 241.68 459.24
  Q 243.80 460.32 246.75 460.00
  Q 250.55 459.58 258.20 460.03
  Q 258.68 460.06 258.20 460.11
  Q 253.32 460.58 259.50 460.57
  Q 262.41 460.57 265.25 459.96
  Q 269.39 460.52 273.29 459.25
  Q 276.01 458.75 278.76 458.69
  Q 282.30 458.62 284.21 458.32
  Q 289.64 457.46 295.07 456.60
  Q 301.78 455.55 305.88 454.60
  Q 323.34 450.57 340.25 442.75
  Q 368.18 429.83 390.09 409.22
  Q 397.16 402.58 404.08 394.93
  Q 425.81 370.88 439.04 341.00
  Q 440.15 338.50 444.06 328.56
  Q 444.44 327.59 443.54 327.75
  L 448.89 311.53
  A 0.75 0.45 2.4 0 1 449.53 311.18
  Q 449.91 311.16 450.21 310.75
  Z"
/>
<path fill="#131105" fill-opacity="0.604" d="
  M 176.75 311.71
  L 178.19 311.78
  Q 179.00 311.81 178.22 311.99
  L 172.75 313.21
  L 176.75 311.71
  Z"
/>
<path fill="#7e7a3f" fill-opacity="0.824" d="
  M 122.50 313.54
  Q 122.48 315.61 121.04 317.00
  Q 121.34 315.08 122.50 313.54
  Z"
/>
<path fill="#aca35e" fill-opacity="0.671" d="
  M 27.46 319.25
  L 26.46 315.50
  Q 26.45 313.71 27.06 315.26
  Q 27.81 317.18 27.46 319.25
  Z"
/>
<path fill="#736d24" fill-opacity="0.639" d="
  M 201.54 337.50
  L 201.67 336.81
  A 0.56 0.43 9.5 0 0 201.18 336.29
  L 199.25 335.96
  Q 204.90 330.34 209.64 323.94
  Q 210.46 322.83 211.64 322.21
  Q 213.38 321.29 212.23 322.87
  L 201.54 337.50
  Z"
/>
<path fill="#ac8a2c" fill-opacity="0.984" d="
  M 181.00 331.21
  L 180.29 331.54
  A 0.93 0.71 47.7 0 1 179.42 331.38
  Q 177.30 329.73 175.20 328.08
  Q 172.97 326.33 171.50 325.97
  Q 169.29 325.44 167.05 326.27
  Q 166.41 326.51 165.92 326.45
  Q 165.33 326.38 164.75 326.21
  L 172.17 323.84
  A 0.83 0.77 64.8 0 1 173.08 324.21
  Q 174.24 326.12 176.13 327.34
  Q 178.75 329.03 181.00 331.21
  Z"
/>
<path fill="#f8d04b" fill-opacity="0.996" d="
  M 181.00 331.21
  L 194.34 340.48
  A 0.62 0.58 38.2 0 0 195.12 340.41
  L 199.25 335.96
  L 201.18 336.29
  A 0.56 0.43 9.5 0 1 201.67 336.81
  L 201.54 337.50
  L 199.46 341.00
  Q 197.52 342.47 199.46 343.75
  Q 209.01 350.82 212.69 355.06
  Q 218.76 362.06 224.48 374.61
  Q 224.82 375.35 224.21 375.00
  Q 223.88 374.81 223.56 374.19
  Q 221.12 369.29 215.70 364.82
  Q 205.54 356.44 193.25 351.71
  Q 192.15 350.84 190.75 350.79
  Q 186.08 349.05 181.64 346.83
  Q 175.62 343.83 172.91 342.11
  Q 165.42 337.33 160.34 329.26
  A 0.51 0.49 59.6 0 1 160.51 328.55
  L 164.75 326.21
  Q 165.33 326.38 165.92 326.45
  Q 166.41 326.51 167.05 326.27
  Q 169.29 325.44 171.50 325.97
  Q 172.97 326.33 175.20 328.08
  Q 177.30 329.73 179.42 331.38
  A 0.93 0.71 47.7 0 0 180.29 331.54
  L 181.00 331.21
  Z"
/>
<path fill="#131105" fill-opacity="0.604" d="
  M 71.79 326.50
  Q 77.02 340.39 84.29 353.25
  Q 89.24 361.99 94.77 370.28
  Q 112.54 396.88 138.06 415.44
  Q 139.47 416.46 140.25 414.71
  Q 141.00 414.86 140.79 415.75
  Q 136.16 426.78 131.59 437.82
  Q 131.21 438.74 131.25 439.71
  Q 130.06 440.28 131.04 440.75
  L 127.77 446.08
  Q 127.45 446.59 127.67 446.03
  L 136.79 422.00
  Q 137.69 420.34 136.45 419.56
  Q 135.19 418.78 135.16 418.75
  Q 124.65 409.81 114.75 400.21
  Q 98.01 381.91 85.04 360.75
  Q 78.55 348.88 73.71 336.25
  L 71.79 326.50
  Z"
/>
<path fill="#9f994d" fill-opacity="0.984" d="
  M 443.54 327.75
  Q 444.44 327.59 444.06 328.56
  Q 440.15 338.50 439.04 341.00
  Q 438.87 340.66 438.50 340.71
  L 443.54 327.75
  Z"
/>
<path fill="#aca35e" fill-opacity="0.671" d="
  M 145.29 341.75
  L 145.79 339.66
  A 0.45 0.39 -81.7 0 0 145.44 339.11
  L 140.07 338.79
  A 1.07 0.83 -65.2 0 0 139.26 339.21
  Q 137.63 341.28 135.29 342.50
  Q 135.34 339.91 137.31 338.56
  Q 139.26 337.23 140.46 336.38
  Q 141.93 335.33 143.87 334.85
  Q 146.41 334.22 149.50 333.01
  Q 149.94 332.84 149.72 333.27
  L 145.29 341.75
  Z"
/>
<path fill="#0c0c0a" fill-opacity="0.847" d="
  M 131.00 333.04
  Q 125.87 336.63 120.37 339.64
  Q 120.34 339.66 119.80 340.06
  Q 119.27 340.45 118.50 340.21
  Q 124.46 336.12 131.00 333.04
  Z"
/>
<path fill="#978c4e" fill-opacity="0.600" d="
  M 113.96 338.25
  L 116.44 339.02
  A 0.95 0.75 2.8 0 1 117.04 339.54
  Q 117.32 340.34 118.25 340.29
  L 114.56 342.81
  Q 112.28 344.37 113.00 341.75
  L 113.96 338.25
  Z"
/>
<path fill="#e9c749" fill-opacity="0.941" d="
  M 145.29 341.75
  Q 141.19 353.37 143.79 365.50
  L 144.46 368.25
  Q 146.20 381.31 153.04 392.50
  Q 153.47 394.73 154.71 393.25
  L 182.04 359.75
  Q 182.52 360.02 182.79 360.50
  Q 174.83 374.57 165.56 387.81
  Q 163.28 391.07 159.71 397.25
  Q 157.20 400.18 160.96 401.75
  Q 168.62 409.32 177.75 415.04
  Q 176.64 416.78 174.75 416.78
  Q 174.36 416.78 174.63 417.07
  L 176.03 418.67
  Q 176.34 419.02 176.63 419.13
  Q 177.98 419.65 176.25 419.79
  Q 165.71 414.59 156.00 407.96
  Q 154.25 405.23 153.25 407.96
  Q 149.48 412.26 147.21 417.50
  Q 137.69 430.29 135.06 434.81
  Q 133.20 438.01 131.25 439.71
  Q 131.21 438.74 131.59 437.82
  Q 136.16 426.78 140.79 415.75
  L 146.79 402.25
  Q 147.67 400.78 146.71 399.68
  Q 145.95 398.81 145.90 398.73
  Q 144.86 397.25 143.54 396.00
  Q 137.49 387.04 134.96 376.50
  Q 132.64 363.25 133.44 354.81
  Q 133.86 350.33 133.71 348.25
  L 135.29 342.50
  Q 137.63 341.28 139.26 339.21
  A 1.07 0.83 -65.2 0 1 140.07 338.79
  L 145.44 339.11
  A 0.45 0.39 -81.7 0 1 145.79 339.66
  L 145.29 341.75
  Z"
/>
<path fill="#d1c274" fill-opacity="0.992" d="
  M 438.50 340.71
  Q 438.87 340.66 439.04 341.00
  Q 425.81 370.88 404.08 394.93
  Q 397.16 402.58 390.09 409.22
  Q 368.18 429.83 340.25 442.75
  Q 323.34 450.57 305.88 454.60
  Q 301.78 455.55 295.07 456.60
  Q 289.64 457.46 284.21 458.32
  Q 282.30 458.62 278.76 458.69
  Q 276.01 458.75 273.29 459.25
  Q 273.60 457.71 275.50 458.04
  Q 342.07 452.37 390.69 407.19
  Q 394.58 403.57 400.10 397.93
  Q 405.10 392.82 408.90 388.10
  Q 426.51 366.23 438.50 340.71
  Z"
/>
<path fill="#131105" fill-opacity="0.604" d="
  M 199.46 341.00
  L 199.46 343.75
  Q 197.52 342.47 199.46 341.00
  Z"
/>
<path fill="#978c4e" fill-opacity="0.600" d="
  M 133.71 348.25
  Q 133.86 350.33 133.44 354.81
  Q 132.64 363.25 134.96 376.50
  Q 133.58 373.77 133.28 370.79
  Q 132.90 367.18 132.90 367.11
  Q 131.54 357.64 133.71 348.25
  Z"
/>
<path fill="#0c0c0a" fill-opacity="0.847" d="
  M 190.75 350.79
  Q 192.15 350.84 193.25 351.71
  Q 191.36 352.36 190.75 350.79
  Z"
/>
<path fill="#d8c369" fill-opacity="0.914" d="
  M 182.79 360.50
  Q 182.52 360.02 182.04 359.75
  L 188.50 351.95
  A 1.14 0.77 -61.9 0 1 189.31 351.52
  Q 189.99 351.58 189.44 352.44
  Q 187.50 355.48 182.79 360.50
  Z"
/>
<path fill="#7e7a3f" fill-opacity="0.824" d="
  M 85.04 360.75
  Q 98.01 381.91 114.75 400.21
  Q 114.33 400.18 114.21 400.50
  Q 99.80 387.00 89.44 370.20
  Q 89.40 370.14 87.24 367.06
  Q 85.63 364.77 84.96 362.00
  L 85.04 360.75
  Z"
/>
<path fill="#0c0c0a" fill-opacity="0.847" d="
  M 144.46 368.25
  L 143.79 365.50
  Q 144.06 361.29 144.34 364.27
  Q 144.53 366.25 144.46 368.25
  Z"
/>
<path fill="#0c0c0a" fill-opacity="0.847" d="
  M 153.04 392.50
  L 154.71 393.25
  Q 153.47 394.73 153.04 392.50
  Z"
/>
<path fill="#0c0c0a" fill-opacity="0.847" d="
  M 143.54 396.00
  Q 144.86 397.25 145.90 398.73
  Q 145.95 398.81 146.71 399.68
  Q 147.67 400.78 146.79 402.25
  Q 146.93 401.06 146.25 400.31
  Q 145.03 398.99 145.00 398.95
  Q 144.17 397.53 143.54 396.00
  Z"
/>
<path fill="#0c0c0a" fill-opacity="0.847" d="
  M 159.71 397.25
  L 159.75 397.72
  A 0.57 0.47 0.4 0 0 160.28 398.16
  Q 161.06 398.20 160.53 399.09
  A 1.22 0.73 -47.5 0 0 160.35 399.98
  L 160.96 401.75
  Q 157.20 400.18 159.71 397.25
  Z"
/>
<path fill="#9f994d" fill-opacity="0.984" d="
  M 114.75 400.21
  Q 124.65 409.81 135.16 418.75
  Q 135.19 418.78 136.45 419.56
  Q 137.69 420.34 136.79 422.00
  Q 136.73 421.77 136.50 421.71
  L 136.50 421.48
  A 0.50 0.49 20.3 0 0 136.32 421.10
  Q 124.61 411.50 114.21 400.50
  Q 114.33 400.18 114.75 400.21
  Z"
/>
<path fill="#131105" fill-opacity="0.604" d="
  M 156.00 407.96
  L 153.25 407.96
  Q 154.25 405.23 156.00 407.96
  Z"
/>
<path fill="#7e7a3f" fill-opacity="0.824" d="
  M 133.63 410.53
  Q 135.64 410.11 136.33 411.98
  Q 136.62 412.76 135.90 412.27
  L 133.61 410.71
  Q 133.41 410.58 133.63 410.53
  Z"
/>
<path fill="#aca35e" fill-opacity="0.671" d="
  M 263.71 416.25
  Q 262.99 419.14 263.25 420.25
  Q 263.67 422.04 262.36 421.33
  A 1.04 0.91 14.5 0 1 261.84 420.57
  L 261.46 415.75
  L 261.55 412.03
  A 0.68 0.50 74.1 0 1 261.70 411.63
  Q 261.98 411.35 261.97 412.00
  Q 261.95 413.97 262.04 415.94
  A 0.70 0.58 -88.3 0 0 262.54 416.58
  Q 263.14 416.66 263.71 416.25
  Z"
/>
<path fill="#736d24" fill-opacity="0.639" d="
  M 177.75 415.04
  Q 186.58 421.05 196.17 425.72
  Q 196.89 426.07 197.13 426.52
  Q 197.61 427.42 196.13 427.50
  Q 195.59 427.53 194.90 427.32
  Q 185.23 424.42 176.25 419.79
  Q 177.98 419.65 176.63 419.13
  Q 176.34 419.02 176.03 418.67
  L 174.63 417.07
  Q 174.36 416.78 174.75 416.78
  Q 176.64 416.78 177.75 415.04
  Z
  M 195.40 426.99
  Q 196.59 427.21 195.56 426.46
  A 0.99 0.96 -29.0 0 0 194.88 426.28
  Q 192.62 426.48 195.40 426.99
  Z"
/>
<path fill="#0c0904" fill-opacity="0.984" d="
  M 147.21 417.50
  L 148.00 418.96
  Q 146.50 419.19 146.25 420.71
  Q 145.38 420.85 145.62 421.25
  A 0.49 0.39 55.3 0 1 145.58 421.84
  Q 144.24 422.99 143.71 424.75
  Q 142.31 425.47 143.34 425.87
  Q 143.85 426.07 144.08 426.24
  Q 161.97 438.98 182.75 446.21
  L 188.20 448.11
  Q 188.83 448.33 188.69 447.69
  Q 188.63 447.41 188.40 447.22
  Q 188.17 447.03 187.55 447.04
  Q 186.48 447.04 185.71 446.25
  Q 187.65 445.67 190.19 446.31
  Q 191.59 446.67 193.29 445.75
  L 199.25 447.71
  Q 197.90 447.88 196.66 447.50
  Q 194.80 446.92 194.23 446.87
  Q 192.86 446.76 191.50 446.77
  Q 190.20 446.77 190.44 447.13
  A 0.89 0.52 -17.7 0 0 191.28 447.32
  Q 194.29 446.64 194.65 449.70
  A 0.37 0.35 -13.6 0 0 195.14 449.98
  Q 196.22 449.59 197.75 450.00
  Q 201.67 451.05 203.54 451.80
  A 0.75 0.63 -54.5 0 0 204.30 451.60
  Q 204.74 451.15 204.94 451.95
  A 0.51 0.45 87.1 0 0 205.29 452.31
  Q 211.75 453.59 205.24 452.78
  Q 204.99 452.75 205.11 452.98
  Q 206.14 455.03 208.60 454.37
  A 0.60 0.53 84.9 0 0 209.00 453.83
  Q 209.04 452.69 209.80 453.99
  A 1.79 1.79 -13.3 0 0 211.23 454.87
  Q 214.00 455.05 214.19 455.73
  A 0.38 0.27 74.9 0 0 214.55 456.03
  Q 217.12 455.28 219.56 456.38
  A 0.32 0.26 -59.3 0 1 219.63 456.83
  Q 219.49 457.01 219.46 457.25
  Q 213.98 456.65 205.50 454.50
  Q 172.82 446.21 143.37 427.38
  A 1.68 1.68 32.4 0 0 141.04 427.90
  Q 136.93 434.39 131.04 440.75
  Q 130.06 440.28 131.25 439.71
  Q 133.20 438.01 135.06 434.81
  Q 137.69 430.29 147.21 417.50
  Z"
/>
<path fill="#040401" fill-opacity="0.275" d="
  M 146.25 420.71
  Q 146.73 421.68 148.69 423.06
  Q 154.37 427.08 160.29 430.75
  Q 160.64 432.56 162.50 432.04
  Q 177.39 440.02 193.29 445.75
  Q 191.59 446.67 190.19 446.31
  Q 187.65 445.67 185.71 446.25
  Q 184.57 445.62 183.25 445.54
  Q 179.82 444.03 176.31 442.69
  Q 175.84 442.51 175.41 441.75
  A 0.78 0.74 -16.2 0 0 174.70 441.38
  Q 173.54 441.44 172.06 440.69
  Q 155.48 432.28 143.71 424.75
  Q 144.24 422.99 145.58 421.84
  A 0.49 0.39 55.3 0 0 145.62 421.25
  Q 145.38 420.85 146.25 420.71
  Z
  M 147.96 423.16
  Q 147.87 423.00 147.72 422.97
  A 0.57 0.40 -81.5 0 0 147.23 423.48
  Q 147.07 424.73 148.20 424.73
  A 0.51 0.48 -3.3 0 0 148.72 424.18
  Q 148.65 423.81 148.32 423.58
  Q 148.14 423.45 147.96 423.16
  Z"
/>
<path fill="#0c0c0a" fill-opacity="0.847" d="
  M 367.75 421.71
  Q 368.51 422.07 367.74 422.53
  Q 367.43 422.71 367.19 422.92
  Q 366.14 423.87 364.71 423.75
  L 367.75 421.71
  Z"
/>
<path fill="#050404" fill-opacity="0.047" d="
  M 148.32 423.58
  Q 148.65 423.81 148.72 424.18
  A 0.51 0.48 -3.3 0 1 148.20 424.73
  Q 147.07 424.73 147.23 423.48
  A 0.57 0.40 -81.5 0 1 147.72 422.97
  Q 147.87 423.00 147.96 423.16
  Q 148.14 423.45 148.32 423.58
  Z"
/>
<path fill="#9f994d" fill-opacity="0.984" d="
  M 143.71 424.75
  Q 155.48 432.28 172.06 440.69
  Q 173.54 441.44 174.70 441.38
  A 0.78 0.74 -16.2 0 1 175.41 441.75
  Q 175.84 442.51 176.31 442.69
  Q 179.82 444.03 183.25 445.54
  L 182.75 446.21
  Q 161.97 438.98 144.08 426.24
  Q 143.85 426.07 143.34 425.87
  Q 142.31 425.47 143.71 424.75
  Z"
/>
<path fill="#040401" fill-opacity="0.275" d="
  M 195.40 426.99
  Q 192.62 426.48 194.88 426.28
  A 0.99 0.96 -29.0 0 1 195.56 426.46
  Q 196.59 427.21 195.40 426.99
  Z"
/>
<path fill="#978c4e" fill-opacity="0.600" d="
  M 350.00 426.29
  Q 349.07 427.60 347.67 428.21
  Q 345.59 429.11 345.54 429.15
  Q 342.92 430.62 340.25 432.00
  Q 336.78 433.80 335.25 434.00
  L 350.00 426.29
  Z"
/>
<path fill="#040401" fill-opacity="0.275" d="
  M 206.21 430.86
  Q 204.78 430.68 206.14 430.51
  Q 206.25 430.50 206.37 430.53
  Q 208.36 431.13 206.21 430.86
  Z"
/>
<path fill="#0c0904" fill-opacity="0.984" d="
  M 160.29 430.75
  Q 161.53 431.17 162.50 432.04
  Q 160.64 432.56 160.29 430.75
  Z"
/>
<path fill="#978c4e" fill-opacity="0.600" d="
  M 335.25 434.00
  Q 335.07 434.53 334.25 435.00
  Q 330.54 437.11 327.00 437.46
  L 335.25 434.00
  Z"
/>
<path fill="#050404" fill-opacity="0.047" d="
  M 230.22 436.75
  Q 228.46 436.14 225.75 436.50
  Q 224.57 436.65 224.61 435.99
  A 0.63 0.51 2.5 0 1 225.25 435.51
  Q 229.10 435.65 232.78 436.84
  A 0.79 0.66 10.8 0 1 233.32 437.50
  Q 233.32 438.34 232.25 438.00
  Q 229.40 437.09 227.38 437.19
  Q 227.31 437.19 227.25 437.18
  Q 223.27 436.65 227.42 437.04
  Q 228.80 437.17 230.20 437.00
  Q 230.76 436.94 230.22 436.75
  Z"
/>
<path fill="#0c0c0a" fill-opacity="0.847" d="
  M 333.96 441.00
  Q 333.68 441.38 333.26 441.62
  Q 332.86 441.84 332.56 442.25
  Q 331.79 443.33 330.25 442.46
  L 333.96 441.00
  Z"
/>
<path fill="#978c4e" fill-opacity="0.600" d="
  M 315.00 441.79
  Q 314.59 443.09 312.75 442.46
  L 315.00 441.79
  Z"
/>
<path fill="#978c4e" fill-opacity="0.600" d="
  M 309.75 443.54
  Q 307.70 444.82 302.19 445.96
  Q 301.69 446.06 301.19 446.20
  Q 297.10 447.38 293.25 447.46
  L 309.75 443.54
  Z"
/>
<path fill="#131105" fill-opacity="0.604" d="
  M 110.29 444.25
  L 114.50 447.21
  Q 111.57 447.00 110.29 444.25
  Z"
/>
<path fill="#050404" fill-opacity="0.047" d="
  M 234.82 445.40
  Q 237.02 445.28 235.88 446.41
  Q 235.53 446.76 235.02 446.88
  Q 233.18 447.33 230.25 447.25
  Q 228.40 447.20 228.83 445.72
  A 1.12 1.00 -5.9 0 1 229.45 445.04
  Q 231.72 444.10 233.87 445.19
  Q 234.33 445.43 234.82 445.40
  Z"
/>
<path fill="#4d3e10" d="
  M 183.25 445.54
  Q 184.57 445.62 185.71 446.25
  Q 186.48 447.04 187.55 447.04
  Q 188.17 447.03 188.40 447.22
  Q 188.63 447.41 188.69 447.69
  Q 188.83 448.33 188.20 448.11
  L 182.75 446.21
  L 183.25 445.54
  Z"
/>
<path fill="#0c0904" fill-opacity="0.984" d="
  M 217.25 446.54
  Q 221.25 446.56 225.00 447.96
  Q 220.98 448.00 217.25 446.54
  Z"
/>
<path fill="#0c0c0a" fill-opacity="0.847" d="
  M 227.00 448.29
  Q 231.86 448.84 236.75 449.08
  Q 238.29 449.15 237.21 450.00
  Q 231.92 450.32 227.00 448.29
  Z"
/>
<ellipse fill="#c2af5b" fill-opacity="0.812" cx="0.00" cy="0.00" transform="translate(307.39,448.76) rotate(-3.5)" rx="1.35" ry="0.27"/>
<path fill="#131105" fill-opacity="0.604" d="
  M 278.00 449.54
  Q 276.11 450.29 274.04 450.00
  Q 275.90 448.80 278.00 449.54
  Z"
/>
<path fill="#0c0c0a" fill-opacity="0.847" d="
  M 206.25 449.54
  L 210.25 450.71
  Q 208.92 450.89 207.62 450.60
  Q 207.54 450.58 206.87 450.51
  Q 206.15 450.44 206.25 449.54
  Z"
/>
<path fill="#0c0c0a" fill-opacity="0.847" d="
  M 225.04 453.75
  L 231.75 454.46
  L 224.31 454.26
  Q 223.81 454.25 224.30 454.05
  L 225.04 453.75
  Z"
/>
<path fill="#0c0c0a" fill-opacity="0.847" d="
  M 232.25 454.54
  Q 247.44 456.60 262.75 456.04
  Q 263.03 456.14 263.08 456.27
  A 0.32 0.19 -4.8 0 1 262.74 456.51
  L 239.13 456.45
  Q 238.90 456.45 239.09 456.29
  Q 239.28 456.12 239.06 455.91
  Q 238.96 455.81 238.78 455.80
  Q 236.30 455.55 233.82 455.46
  A 1.31 0.90 62.9 0 1 233.03 455.03
  Q 232.72 454.69 232.25 454.54
  Z"
/>
<path fill="#131105" fill-opacity="0.604" d="
  M 275.50 458.04
  Q 273.60 457.71 273.29 459.25
  Q 269.39 460.52 265.25 459.96
  Q 265.37 458.81 266.18 459.37
  A 0.93 0.77 46.9 0 0 267.01 459.48
  Q 271.05 457.70 275.50 458.04
  Z"
/>
<path fill="#0c0904" fill-opacity="0.984" d="
  M 190.54 486.25
  L 211.50 491.71
  Q 210.24 491.81 206.50 491.00
  Q 201.10 489.82 195.82 488.17
  Q 195.65 488.12 193.14 487.75
  Q 191.62 487.53 190.54 486.25
  Z"
/>
<path fill="#0c0c0a" fill-opacity="0.847" d="
  M 295.25 492.54
  Q 295.32 492.83 295.23 493.07
  A 0.89 0.61 7.1 0 1 294.46 493.47
  L 291.25 493.46
  L 295.25 492.54
  Z"
/>
<path fill="#131105" fill-opacity="0.604" d="
  M 279.25 494.29
  L 283.23 494.50
  Q 284.19 494.55 283.27 494.75
  Q 278.03 495.84 272.75 495.29
  L 279.25 494.29
  Z"
/>
</svg>
